<svg version="1.1" xmlns="http://www.w3.org/2000/svg" xmlns:xlink="http://www.w3.org/1999/xlink" width="75" height="75" viewBox="0,0,75,75"><g transform="translate(-202.5,-142.5)"><g data-paper-data="{&quot;isPaintingLayer&quot;:true}" fill-rule="nonzero" stroke-linecap="butt" stroke-linejoin="miter" stroke-miterlimit="10" stroke-dasharray="" stroke-dashoffset="0" style="mix-blend-mode: normal"><g fill="#000000" stroke="#ffffff" stroke-width="1"><path d="M248.16644,185.70603c0,1.45863 -1.18299,2.64131 -2.64131,2.64131h-11.05055c-1.45863,0 -2.64101,-1.18299 -2.64101,-2.64131v-11.41236c0,-1.45863 1.18238,-2.64101 2.64101,-2.64101h11.05024c1.45925,0 2.64131,1.18238 2.64131,2.64101v11.41236z" data-paper-data="{&quot;index&quot;:null}"/><g><path d="M230.92915,173.17151c0,-1.04965 1.37121,-1.19294 2.82924,-1.68458c1.40911,-0.47514 2.91563,-0.44493 2.91563,0.60472c0,1.04965 -2.75916,4.27625 -3.73632,4.27625c-1.53869,0 -2.00854,-2.14674 -2.00854,-3.19639z"/><path d="M249.07084,173.17151c0,1.04965 -0.46986,3.19639 -2.00855,3.19639c-0.97716,0 -3.73632,-3.2266 -3.73632,-4.27625c0,-1.04965 1.50652,-1.07986 2.91562,-0.60472c1.45803,0.49164 2.82924,0.63493 2.82924,1.68458z" data-paper-data="{&quot;index&quot;:null}"/></g></g><path d="M248.16644,185.70603c0,1.45863 -1.18299,2.64131 -2.64131,2.64131h-11.05055c-1.45863,0 -2.64101,-1.18299 -2.64101,-2.64131v-11.41236c0,-1.45863 1.18238,-2.64101 2.64101,-2.64101h11.05024c1.45925,0 2.64131,1.18238 2.64131,2.64101v11.41236z" data-paper-data="{&quot;index&quot;:null}" fill="#ffa7da" stroke="none" stroke-width="1"/><path d="M202.5,217.5v-75h75v75z" fill="none" stroke="none" stroke-width="0"/><g fill="#ff73b6" stroke="none" stroke-width="0"><path d="M230.92915,173.17151c0,-1.04965 1.37121,-1.19294 2.82924,-1.68458c1.40911,-0.47514 2.91563,-0.44493 2.91563,0.60472c0,1.04965 -2.75916,4.27625 -3.73632,4.27625c-1.53869,0 -2.00854,-2.14674 -2.00854,-3.19639z"/><path d="M249.07084,173.17151c0,1.04965 -0.46986,3.19639 -2.00855,3.19639c-0.97716,0 -3.73632,-3.2266 -3.73632,-4.27625c0,-1.04965 1.50652,-1.07986 2.91562,-0.60472c1.45803,0.49164 2.82924,0.63493 2.82924,1.68458z" data-paper-data="{&quot;index&quot;:null}"/></g><g fill="#000000" stroke="none" stroke-width="0"><path d="M233.45603,179.97185c0,-0.27434 0.6878,-1.66299 2.22452,-1.74938c1.0599,-0.05958 2.3541,1.69101 2.3541,1.96535c0,0.27434 -1.20613,-1.10146 -2.26771,-1.10146c-1.06157,0 -2.3109,1.15983 -2.3109,0.88549z"/><path d="M246.54396,179.97186c0,0.27434 -1.24933,-0.88549 -2.3109,-0.88549c-1.06158,0 -2.26771,1.3758 -2.26771,1.10146c0,-0.27434 1.2942,-2.02493 2.3541,-1.96535c1.53671,0.08639 2.22451,1.47504 2.22451,1.74938z" data-paper-data="{&quot;index&quot;:null}"/></g><g stroke="none" stroke-width="0"><path d="M240.00001,180.71882c2.33952,0 4.23608,2.15158 4.23608,3.61616c0,1.46458 -1.89656,1.27426 -4.23608,1.27426c-2.33952,0 -4.23608,0.19032 -4.23608,-1.27426c0,-1.46458 1.89656,-3.61616 4.23608,-3.61616z" fill="#ff73b6"/><g><g data-paper-data="{&quot;index&quot;:null}"><path d="M239.42999,183.63278c0,0.79017 -0.42704,1.43073 -0.95382,1.43073c-0.52678,0 -0.95382,-0.64056 -0.95382,-1.43073c0,-0.79017 0.42704,-1.43072 0.95382,-1.43072c0.52678,0 0.95382,0.64055 0.95382,1.43072z" fill="#a92c4a"/><path d="M239.31983,183.50426c0,0.65835 -0.34484,1.19205 -0.77023,1.19205c-0.42538,0 -0.77023,-0.5337 -0.77023,-1.19205c0,-0.65835 0.34484,-1.19205 0.77023,-1.19205c0.42538,0 0.77023,0.5337 0.77023,1.19205z" fill="#6b2647"/></g><g><path d="M241.52383,182.20206c0.52678,0 0.95382,0.64055 0.95382,1.43072c0,0.79017 -0.42704,1.43073 -0.95382,1.43073c-0.52678,0 -0.95382,-0.64056 -0.95382,-1.43073c0,-0.79017 0.42704,-1.43072 0.95382,-1.43072z" fill="#a92c4a"/><path d="M241.45039,182.31221c0.42538,0 0.77023,0.5337 0.77023,1.19205c0,0.65835 -0.34484,1.19205 -0.77023,1.19205c-0.42538,0 -0.77022,-0.5337 -0.77022,-1.19205c0,-0.65835 0.34484,-1.19205 0.77022,-1.19205z" fill="#6b2647"/></g></g></g></g></g></svg>