<svg version="1.1" xmlns="http://www.w3.org/2000/svg" xmlns:xlink="http://www.w3.org/1999/xlink" width="74" height="74" viewBox="0,0,74,74"><g transform="translate(-203,-143)"><g data-paper-data="{&quot;isPaintingLayer&quot;:true}" fill-rule="nonzero" stroke="none" stroke-width="0" stroke-linecap="butt" stroke-linejoin="miter" stroke-miterlimit="10" stroke-dasharray="" stroke-dashoffset="0" style="mix-blend-mode: normal"><path d="M237.87886,171.95212c0,-0.15241 -0.02441,-0.04834 -0.02441,-0.04834l4.28719,-0.00303c0,0 0.00389,-0.07063 0.00389,0.05138c0,0.76147 -0.95512,1.37877 -2.13333,1.37877c-1.1782,0 -2.13333,-0.6173 -2.13333,-1.37877z" data-paper-data="{&quot;index&quot;:null}" fill="#000000"/><g data-paper-data="{&quot;index&quot;:null}"><path d="M240.43334,173.8v2.2h-0.86667v-2.2z" fill="#000000"/><path d="M240.43334,176.55v2.2h-0.86667v-2.2z" fill-opacity="0.8" fill="#000000"/><path d="M240.43334,179.3v2.2h-0.86667v-2.2z" fill-opacity="0.6" fill="#000000"/><path d="M240.43334,181.98889v2.2h-0.86667v-2.2z" fill-opacity="0.4" fill="#000000"/><path d="M240.43334,184.8v2.2h-0.86667v-2.2z" fill-opacity="0.2" fill="#000000"/></g><path d="M239.99999,181.43334c4.51032,0 8.16666,3.65634 8.16666,8.16666c0,4.51032 -3.65634,8.16666 -8.16666,8.16666c-4.51032,0 -8.16666,-3.65634 -8.16666,-8.16666c0,-4.51032 3.65634,-8.16666 8.16666,-8.16666z" data-paper-data="{&quot;index&quot;:null}" fill-opacity="0.69412" fill="#ffffff"/><path d="M277,143v74h-74v-74z" data-paper-data="{&quot;index&quot;:null}" fill="none"/></g></g></svg>