<svg version="1.1" xmlns="http://www.w3.org/2000/svg" xmlns:xlink="http://www.w3.org/1999/xlink" width="587" height="470.57025" viewBox="0,0,587,470.57025"><defs><linearGradient x1="241.12407" y1="78.38143" x2="241.12407" y2="128.75154" gradientUnits="userSpaceOnUse" id="color-1"><stop offset="0" stop-color="#000000" stop-opacity="0.28931"/><stop offset="1" stop-color="#000000" stop-opacity="0.13924"/></linearGradient></defs><g transform="translate(53.5,54.78509)"><g data-paper-data="{&quot;isPaintingLayer&quot;:true}" fill-rule="nonzero" stroke-linecap="butt" stroke-linejoin="miter" stroke-miterlimit="10" stroke-dasharray="" stroke-dashoffset="0" style="mix-blend-mode: normal"><path d="M48.21038,78.13888v-30.56281h400.7124v30.56281h-15.03884l-0.48512,222.18678h4.36612v17.94959l-67.91671,0.07652l-0.00168,18.45003l-92.9002,0.03799c0,0 0.02789,2.85304 0.0425,4.34659c0.02754,2.81592 -1.59413,4.92378 -4.41016,4.93462c-11.04119,0.04251 -39.25657,0.15113 -46.08329,0.17741c-3.10652,0.01196 -5.82373,-1.52232 -5.82376,-4.62886c-0.00002,-1.58908 -0.00005,-4.80675 -0.00005,-4.80675l-92.93345,0.03799l0.51757,-18.26655l-69.37055,0.08046l0.4831,-18.38905h4.85124v-222.18678z" fill-opacity="0.6003" fill="#000000" stroke="none" stroke-width="0"/><g fill="#ffffff" stroke="#ffffff" stroke-width="4.5"><path d="M68.50868,298.38515v-230.91901h342.49752v230.91901z" data-paper-data="{&quot;index&quot;:null}"/><path d="M55.41033,304.69175v-237.22562h16.49421v237.22562z" data-paper-data="{&quot;index&quot;:null}"/><path d="M408.09545,304.69175v-237.22562h16.49421v237.22562z" data-paper-data="{&quot;index&quot;:null}"/><path d="M39.6438,70.61946v-30.56281h400.7124v30.56281z" data-paper-data="{&quot;index&quot;:null}"/><path d="M51.04421,310.75579v-17.94959h377.91157v17.94959z" data-paper-data="{&quot;index&quot;:null}"/><path d="M119.20413,329.43307v-36.86942h241.59174v36.86942z" data-paper-data="{&quot;index&quot;:null}"/><path d="M212.10537,330.92311c0,-7.62284 0,-38.11688 0,-38.11688h55.78926c0,0 0,31.73881 0,39.08713c0,3.17917 -1.08298,6.0294 -4.26216,6.0294c-10.28628,0 -36.16464,0 -43.52255,0c-3.78658,0 -8.00455,0.62319 -8.00455,-6.99965z" data-paper-data="{&quot;index&quot;:null}"/></g><path d="M68.50868,298.38515v-230.91901h342.49752v230.91901z" data-paper-data="{&quot;index&quot;:null}" fill="#c26d40" stroke="none" stroke-width="0"/><g fill="#d67947" stroke="none" stroke-width="0"><path d="M68.50868,298.38515v-56.24835h342.49752v56.24835z" data-paper-data="{&quot;index&quot;:null}"/><path d="M68.50868,188.72112v-56.24835h342.49752v56.24835z" data-paper-data="{&quot;index&quot;:null}"/></g><path d="M-53.5,415.78516v-470.57025h587v470.57025z" data-paper-data="{&quot;index&quot;:null}" fill="none" stroke="none" stroke-width="0"/><path d="M55.41033,304.69175v-237.22562h16.49421v237.22562z" data-paper-data="{&quot;index&quot;:null}" fill="#66bb22" stroke="#000000" stroke-width="2"/><path d="M408.09545,304.69175v-237.22562h16.49421v237.22562z" data-paper-data="{&quot;index&quot;:null}" fill="#66bb22" stroke="#000000" stroke-width="2"/><path d="M39.40124,69.89178v-29.10744h40.26529v29.10744z" data-paper-data="{&quot;index&quot;:null}" fill="#ff8caf" stroke="none" stroke-width="0"/><path d="M400.33347,69.89178v-29.10744h39.78017v29.10744z" data-paper-data="{&quot;index&quot;:null}" fill="#ff8caf" stroke="none" stroke-width="0"/><path d="M80.63678,70.86202v-31.04793h318.24132v31.04793z" data-paper-data="{&quot;index&quot;:null}" fill="#66bb22" stroke="none" stroke-width="0"/><path d="M80.63678,70.86202v-6.79174h318.24132v6.79174z" data-paper-data="{&quot;index&quot;:null}" fill="#225500" stroke="none" stroke-width="0"/><path d="M80.63678,57.76368v-17.94959h318.24132v17.94959z" data-paper-data="{&quot;index&quot;:null}" fill="#aadd33" stroke="none" stroke-width="0"/><path d="M400.33347,69.89178v-6.30661h39.78017v6.30661z" data-paper-data="{&quot;index&quot;:null}" fill="#da587f" stroke="none" stroke-width="0"/><path d="M39.88636,69.89178v-6.30661h39.78017v6.30661z" data-paper-data="{&quot;index&quot;:null}" fill="#da587f" stroke="none" stroke-width="0"/><path d="M39.6438,70.61946v-30.56281h400.7124v30.56281z" data-paper-data="{&quot;index&quot;:null}" fill="none" stroke="#000000" stroke-width="2"/><path d="M397.38231,70.86202v-30.56281h4.44697v30.56281z" data-paper-data="{&quot;index&quot;:null}" fill="#000000" stroke="none" stroke-width="0"/><path d="M78.17073,70.86202v-30.56281h4.44697v30.56281z" data-paper-data="{&quot;index&quot;:null}" fill="#000000" stroke="none" stroke-width="0"/><path d="M51.04421,310.75579v-17.94959h377.91157v17.94959z" data-paper-data="{&quot;index&quot;:null}" fill="#ff8caf" stroke="#000000" stroke-width="2"/><path d="M119.20413,329.43307v-36.86942h241.59174v36.86942z" data-paper-data="{&quot;index&quot;:null}" fill="#66bb22" stroke="#000000" stroke-width="2"/><path d="M120.41694,328.46282v-8.73223h239.40868v8.73223z" data-paper-data="{&quot;index&quot;:null}" fill="#225500" stroke="#000000" stroke-width="0"/><path d="M120.41694,310.90135v-17.46446h239.40868v17.46446z" data-paper-data="{&quot;index&quot;:null}" fill="#aadd33" stroke="#000000" stroke-width="0"/><path d="M212.10537,332.72786c0,-7.05551 0,-39.92166 0,-39.92166h55.78926c0,0 0,32.64858 0,39.764c0,3.14583 -1.91562,5.35253 -5.06145,5.35253c-6.42299,0 -34.43725,0 -45.85634,0c-3.01366,0 -4.87145,-1.77779 -4.87145,-5.19487z" data-paper-data="{&quot;index&quot;:null}" fill="#ff8caf" stroke="#000000" stroke-width="2"/><path d="M213.12413,329.45733v-18.42663h53.94579v18.42663z" data-paper-data="{&quot;index&quot;:null}" fill="#da587f" stroke="none" stroke-width="0"/><path d="M213.00285,332.84917c0,-2.12548 0,-7.39409 0,-7.39409h54.06707c0,0 0,6.03778 0,8.12178c0,1.47638 -1.76587,3.52119 -3.24224,3.52119c-5.31982,0 -35.40196,0 -46.60829,0c-2.55333,0 -4.21653,-1.15314 -4.21653,-4.24888z" data-paper-data="{&quot;index&quot;:null}" fill="#b53b5f" stroke="none" stroke-width="0"/><path d="M51.93361,309.86638v-9.05564h66.30027v9.05564z" data-paper-data="{&quot;index&quot;:null}" fill="#da587f" stroke="none" stroke-width="0"/><path d="M361.76612,309.86638v-9.05564h66.30027v9.05564z" data-paper-data="{&quot;index&quot;:null}" fill="#da587f" stroke="none" stroke-width="0"/><path d="M418.0405,291.43171v-219.59945h5.49807v219.59945z" data-paper-data="{&quot;index&quot;:null}" fill="#aadd33" stroke="none" stroke-width="0"/><path d="M408.9579,291.75514v-220.24628h3.9349v220.24628z" data-paper-data="{&quot;index&quot;:null}" fill="#225500" stroke="none" stroke-width="0"/><path d="M56.46144,291.43171v-219.59945h5.49807v219.59945z" fill="#aadd33" stroke="none" stroke-width="0"/><path d="M67.10721,291.75514v-220.24628h3.93489v220.24628z" fill="#225500" stroke="none" stroke-width="0"/><path d="M72.63223,292.07855v-221.21653h335.54408v5.5951l-331.17796,-0.09702v215.71846z" fill-opacity="0.36643" fill="#000000" stroke="none" stroke-width="NaN"/><path d="M80.63678,128.75154v-50.3701h320.97458v50.3701z" fill="url(#color-1)" stroke="none" stroke-width="0"/></g></g></svg>