<svg version="1.1" xmlns="http://www.w3.org/2000/svg" xmlns:xlink="http://www.w3.org/1999/xlink" width="75" height="75" viewBox="0,0,75,75"><defs><linearGradient x1="235.59416" y1="179.67604" x2="235.59416" y2="180.41034" gradientUnits="userSpaceOnUse" id="color-1"><stop offset="0" stop-color="#250000"/><stop offset="1" stop-color="#6b0000"/></linearGradient><linearGradient x1="244.40584" y1="179.67604" x2="244.40584" y2="180.41034" gradientUnits="userSpaceOnUse" id="color-2"><stop offset="0" stop-color="#250000"/><stop offset="1" stop-color="#6b0000"/></linearGradient></defs><g transform="translate(-202.5,-142.5)"><g data-paper-data="{&quot;isPaintingLayer&quot;:true}" fill-rule="nonzero" stroke-linecap="butt" stroke-linejoin="miter" stroke-miterlimit="10" stroke-dasharray="" stroke-dashoffset="0" style="mix-blend-mode: normal"><g fill="#000000" stroke="#ffffff" stroke-width="1"><path d="M248.16644,185.70603c0,1.45863 -1.18299,2.64131 -2.64131,2.64131h-11.05055c-1.45863,0 -2.64101,-1.18299 -2.64101,-2.64131v-11.41236c0,-1.45863 1.18238,-2.64101 2.64101,-2.64101h11.05024c1.45925,0 2.64131,1.18238 2.64131,2.64101v11.41236z" data-paper-data="{&quot;index&quot;:null}"/><g><path d="M230.92915,173.17151c0,-1.04965 1.37121,-1.19294 2.82924,-1.68458c1.40911,-0.47514 2.91563,-0.44493 2.91563,0.60472c0,1.04965 -2.75916,4.27625 -3.73632,4.27625c-1.53869,0 -2.00854,-2.14674 -2.00854,-3.19639z"/><path d="M249.07084,173.17151c0,1.04965 -0.46986,3.19639 -2.00855,3.19639c-0.97716,0 -3.73632,-3.2266 -3.73632,-4.27625c0,-1.04965 1.50652,-1.07986 2.91562,-0.60472c1.45803,0.49164 2.82924,0.63493 2.82924,1.68458z" data-paper-data="{&quot;index&quot;:null}"/></g></g><path d="M248.16644,185.70603c0,1.45863 -1.18299,2.64131 -2.64131,2.64131h-11.05055c-1.45863,0 -2.64101,-1.18299 -2.64101,-2.64131v-11.41236c0,-1.45863 1.18238,-2.64101 2.64101,-2.64101h11.05024c1.45925,0 2.64131,1.18238 2.64131,2.64101v11.41236z" data-paper-data="{&quot;index&quot;:null}" fill="#9e3d3d" stroke="none" stroke-width="1"/><path d="M202.5,217.5v-75h75v75z" fill="none" stroke="none" stroke-width="0"/><path d="M240.00001,180.28688c2.75211,0 4.98314,2.53103 4.98314,4.2539c0,1.72287 -2.23103,1.49899 -4.98314,1.49899c-2.75211,0 -4.98314,0.22388 -4.98314,-1.49899c0,-1.72287 2.23103,-4.2539 4.98314,-4.2539z" fill="#631f1f" stroke="none" stroke-width="0"/><g stroke="none" stroke-width="0"><g data-paper-data="{&quot;index&quot;:null}"><path d="M239.32946,183.71473c0,0.92952 -0.50235,1.68305 -1.12203,1.68305c-0.61968,0 -1.12203,-0.75353 -1.12203,-1.68305c0,-0.92952 0.50235,-1.68304 1.12203,-1.68304c0.61968,0 1.12203,0.75352 1.12203,1.68304z" fill="#9e3d3d"/><path d="M239.19988,183.56355c0,0.77446 -0.40566,1.40228 -0.90606,1.40228c-0.5004,0 -0.90606,-0.62782 -0.90606,-1.40228c0,-0.77446 0.40565,-1.40228 0.90606,-1.40228c0.5004,0 0.90606,0.62782 0.90606,1.40228z" fill="#2a0d0d"/></g><g><path d="M241.79257,182.03169c0.61968,0 1.12203,0.75352 1.12203,1.68304c0,0.92952 -0.50235,1.68305 -1.12203,1.68305c-0.61968,0 -1.12203,-0.75353 -1.12203,-1.68305c0,-0.92952 0.50235,-1.68304 1.12203,-1.68304z" fill="#9e3d3d"/><path d="M241.70618,182.16127c0.5004,0 0.90606,0.62782 0.90606,1.40228c0,0.77446 -0.40566,1.40228 -0.90606,1.40228c-0.5004,0 -0.90605,-0.62782 -0.90605,-1.40228c0,-0.77446 0.40565,-1.40228 0.90605,-1.40228z" fill="#2a0d0d"/></g></g><g fill="#ffffff" stroke="none" stroke-width="0"><path d="M233.13208,179.13611c0,-1.19278 0.96694,-2.15972 2.15972,-2.15972c1.19278,0 2.15973,0.96694 2.15973,2.15972c0,1.19278 -0.96695,2.15973 -2.15973,2.15973c-1.19278,0 -2.15972,-0.96695 -2.15972,-2.15973z"/><path d="M242.54847,179.13611c0,-1.19278 0.96694,-2.15973 2.15972,-2.15973c1.19278,0 2.15973,0.96695 2.15973,2.15973c0,1.19278 -0.96695,2.15973 -2.15973,2.15973c-1.19278,0 -2.15972,-0.96695 -2.15972,-2.15973z"/></g><g stroke="none" stroke-width="0"><g><path d="M234.23354,179.2225c0,-0.75145 0.60917,-1.36062 1.36062,-1.36062c0.75145,0 1.36062,0.60917 1.36062,1.36062c0,0.75145 -0.60917,1.36063 -1.36062,1.36063c-0.75145,0 -1.36062,-0.60917 -1.36062,-1.36063z" fill="#000000"/><path d="M234.5791,178.87694c0,-0.32205 0.26108,-0.58312 0.58312,-0.58312c0.32205,0 0.58312,0.26108 0.58312,0.58312c0,0.32205 -0.26108,0.58312 -0.58312,0.58312c-0.32205,0 -0.58312,-0.26108 -0.58312,-0.58312z" fill="#ffffff"/><path d="M235.59417,179.67604c0.41747,0 0.7559,0.16437 0.7559,0.36715c0,0.20277 -0.33843,0.36715 -0.7559,0.36715c-0.41748,0 -0.75591,-0.16437 -0.75591,-0.36715c0,-0.20277 0.33844,-0.36715 0.75591,-0.36715z" fill="url(#color-1)"/></g><g><path d="M243.04521,179.2225c0,-0.75145 0.60917,-1.36062 1.36062,-1.36062c0.75145,0 1.36062,0.60917 1.36062,1.36062c0,0.75145 -0.60917,1.36063 -1.36062,1.36063c-0.75145,0 -1.36062,-0.60917 -1.36062,-1.36063z" fill="#000000"/><path d="M243.39077,178.87694c0,-0.32205 0.26108,-0.58312 0.58313,-0.58312c0.32205,0 0.58312,0.26108 0.58312,0.58312c0,0.32205 -0.26108,0.58312 -0.58312,0.58312c-0.32205,0 -0.58313,-0.26108 -0.58313,-0.58312z" fill="#ffffff"/><path d="M244.40583,179.67604c0.41748,0 0.75591,0.16437 0.75591,0.36715c0,0.20277 -0.33844,0.36715 -0.75591,0.36715c-0.41747,0 -0.7559,-0.16437 -0.7559,-0.36715c0,-0.20277 0.33843,-0.36715 0.7559,-0.36715z" fill="url(#color-2)"/></g></g><g fill="#631f1f" stroke="none" stroke-width="0"><path d="M230.92915,173.17151c0,-1.04965 1.37121,-1.19294 2.82924,-1.68458c1.40911,-0.47514 2.91563,-0.44493 2.91563,0.60472c0,1.04965 -2.75916,4.27625 -3.73632,4.27625c-1.53869,0 -2.00854,-2.14674 -2.00854,-3.19639z"/><path d="M249.07084,173.17151c0,1.04965 -0.46986,3.19639 -2.00855,3.19639c-0.97716,0 -3.73632,-3.2266 -3.73632,-4.27625c0,-1.04965 1.50652,-1.07986 2.91562,-0.60472c1.45803,0.49164 2.82924,0.63493 2.82924,1.68458z" data-paper-data="{&quot;index&quot;:null}"/></g><g fill="#ffffff" stroke="none" stroke-width="0"><path d="M233.76919,184.57809c0,-1.55061 0.84228,-2.89402 0.84228,-2.89402c0,0 -0.04472,1.52332 0.69201,3.15459c0.51736,1.14553 2.02925,1.12166 2.02925,1.12166c0,0 -0.99071,0.83052 -2.12877,0.61247c-1.13805,-0.21805 -1.43476,-1.30201 -1.43476,-1.9947z"/><path d="M246.2308,184.5781c0,0.69269 -0.29671,1.77664 -1.43477,1.9947c-1.13806,0.21805 -2.12877,-0.61247 -2.12877,-0.61247c0,0 1.51189,0.02388 2.02925,-1.12166c0.73673,-1.63127 0.692,-3.1546 0.692,-3.1546c0,0 0.84229,1.34341 0.84229,2.89403z" data-paper-data="{&quot;index&quot;:null}"/></g><g fill="#3e1313" stroke="none" stroke-width="0"><path d="M233.23512,177.16722c0,0 1.18169,-1.35503 3.36917,-1.07986c0.04907,0.00618 -0.24614,-0.51132 -0.24614,-0.51132c0,0 0.79862,0.23016 1.11685,0.41308c0.32547,0.18708 0.81473,0.69721 0.81473,0.69721l-0.11583,-0.5244c0,0 0.77447,0.71471 1.08725,1.29615c0.31278,0.58145 0.32656,1.3321 0.32656,1.3321l0.25617,-0.4567c0,0 0.19271,1.4979 -1.12305,1.5118c-1.32045,0.01395 -1.4817,-1.67941 -2.79912,-2.32256c-1.31742,-0.64315 -2.68659,-0.3555 -2.68659,-0.3555z"/><path d="M244.0783,177.52271c-1.31742,0.64315 -1.47867,2.33651 -2.79912,2.32256c-1.31576,-0.0139 -1.12305,-1.5118 -1.12305,-1.5118l0.25617,0.4567c0,0 0.01378,-0.75065 0.32656,-1.3321c0.31278,-0.58145 1.08725,-1.29615 1.08725,-1.29615l-0.11583,0.5244c0,0 0.48926,-0.51013 0.81472,-0.69721c0.31823,-0.18292 1.11685,-0.41308 1.11685,-0.41308c0,0 -0.29521,0.5175 -0.24614,0.51132c2.18748,-0.27517 3.36917,1.07986 3.36917,1.07986c0,0 -1.36917,-0.28765 -2.68659,0.3555z" data-paper-data="{&quot;index&quot;:null}"/></g></g></g></svg>