<svg version="1.1" xmlns="http://www.w3.org/2000/svg" xmlns:xlink="http://www.w3.org/1999/xlink" width="44.48864" height="44.48864" viewBox="0,0,44.48864,44.48864"><defs><radialGradient cx="240" cy="180" r="3.6875" gradientUnits="userSpaceOnUse" id="color-1"><stop offset="0" stop-color="#ffffff" stop-opacity="0.26159"/><stop offset="1" stop-color="#ffffff" stop-opacity="0"/></radialGradient></defs><g transform="translate(-217.75568,-157.75568)"><g data-paper-data="{&quot;isPaintingLayer&quot;:true}" fill-rule="nonzero" stroke="none" stroke-linecap="butt" stroke-linejoin="miter" stroke-miterlimit="10" stroke-dasharray="" stroke-dashoffset="0" style="mix-blend-mode: normal"><path d="M217.75568,202.24432v-44.48864h44.48864v44.48864z" fill="none" stroke-width="NaN"/><g><path d="M236.3125,180c0,-2.03655 1.65095,-3.6875 3.6875,-3.6875c2.03655,0 3.6875,1.65095 3.6875,3.6875c0,2.03655 -1.65095,3.6875 -3.6875,3.6875c-2.03655,0 -3.6875,-1.65095 -3.6875,-3.6875z" fill="url(#color-1)" stroke-width="0"/><path d="M239.96765,181.13225c0,0 -0.07938,-0.58214 -0.2824,-0.78516c-0.18581,-0.18581 -0.88867,-0.38591 -0.88867,-0.38591c0,0 0.6086,-0.0467 0.79995,-0.23804c0.19873,-0.19873 0.37112,-0.93303 0.37112,-0.93303c0,0 0.15539,0.7173 0.35633,0.91825c0.18863,0.18863 0.81473,0.25283 0.81473,0.25283c0,0 -0.64972,0.17654 -0.82952,0.35633c-0.20677,0.20677 -0.34155,0.81473 -0.34155,0.81473z" fill="#ffefcc" stroke-width="NaN"/></g></g></g></svg>