<svg version="1.1" xmlns="http://www.w3.org/2000/svg" xmlns:xlink="http://www.w3.org/1999/xlink" width="22.95" height="22.95" viewBox="0,0,22.95,22.95"><g transform="translate(-228.525,-168.525)"><g data-paper-data="{&quot;isPaintingLayer&quot;:true}" fill-rule="nonzero" stroke="none" stroke-width="0" stroke-linecap="butt" stroke-linejoin="miter" stroke-miterlimit="10" stroke-dasharray="" stroke-dashoffset="0" style="mix-blend-mode: normal"><path d="M247.21913,175.93414l0,5.53413l-9.82381,-2.76706z" data-paper-data="{&quot;index&quot;:null}" fill-opacity="0.76471" fill="#ffffff"/><path d="M247.21006,179.71986l0,4.4627l-7.92188,-2.23135z" data-paper-data="{&quot;index&quot;:null}" fill-opacity="0.76471" fill="#ffffff"/><path d="M246.80291,181.85319v6.19603l-10.99877,-3.09802z" data-paper-data="{&quot;index&quot;:null}" fill-opacity="0.76471" fill="#ffffff"/><path d="M246.95053,171.94841v7.27939l-12.42188,-3.6397z" data-paper-data="{&quot;index&quot;:null}" fill-opacity="0.76471" fill="#ffffff"/><path d="M240.59506,188.03031l6.20785,-1.74856v1.70039z" data-paper-data="{&quot;index&quot;:null}" fill-opacity="0.76471" fill="#ffffff"/><path d="M240.59507,172.03032l6.20785,-0.04817l0,2.20992l-6.94133,-1.95516z" data-paper-data="{&quot;index&quot;:null}" fill-opacity="0.76471" fill="#ffffff"/><g data-paper-data="{&quot;index&quot;:null}" fill="#000000"><path d="M248.00003,188h-1.31794l-2.56781,-1.72801l2.38329,-2.49764l-1.41949,-1.26752l1.61034,-1.84175l-3.58391,-1.43622l3.70398,-1.33245l-1.40806,-1.57615l0.86977,-1.15359l-1.4003,-1.56667l1.96015,-1.56937l1.16995,-0.03063z"/><path d="M247.86429,187.99285l-0.93333,0l0,-15.98571l0.93333,0z"/></g><path d="M251.475,191.475h-22.95l0,-22.95l22.95,0z" data-paper-data="{&quot;index&quot;:null}" fill="none"/></g></g></svg>