<svg version="1.1" xmlns="http://www.w3.org/2000/svg" xmlns:xlink="http://www.w3.org/1999/xlink" width="44.48864" height="44.48864" viewBox="0,0,44.48864,44.48864"><defs><radialGradient cx="240" cy="180" r="20.96875" gradientUnits="userSpaceOnUse" id="color-1"><stop offset="0" stop-color="#ffffff"/><stop offset="1" stop-color="#ffffff" stop-opacity="0"/></radialGradient></defs><g transform="translate(-217.75568,-157.75568)"><g data-paper-data="{&quot;isPaintingLayer&quot;:true}" fill-rule="nonzero" stroke-linecap="butt" stroke-linejoin="miter" stroke-miterlimit="10" stroke-dasharray="" stroke-dashoffset="0" style="mix-blend-mode: normal"><path d="M217.75568,202.24432v-44.48864h44.48864v44.48864z" fill="none" stroke="none" stroke-width="NaN"/><path d="M219.03125,180c0,-11.58071 9.38804,-20.96875 20.96875,-20.96875c11.58071,0 20.96875,9.38804 20.96875,20.96875c0,11.58071 -9.38804,20.96875 -20.96875,20.96875c-11.58071,0 -20.96875,-9.38804 -20.96875,-20.96875z" fill="url(#color-1)" stroke="#231a11" stroke-width="0"/><path d="M231.09375,180c0,-4.91878 3.98747,-8.90625 8.90625,-8.90625c4.91878,0 8.90625,3.98747 8.90625,8.90625c0,4.91878 -3.98747,8.90625 -8.90625,8.90625c-4.91878,0 -8.90625,-3.98747 -8.90625,-8.90625z" fill="#ffffff" stroke="#231a11" stroke-width="0"/></g></g></svg>