<svg version="1.1" xmlns="http://www.w3.org/2000/svg" xmlns:xlink="http://www.w3.org/1999/xlink" width="75" height="75" viewBox="0,0,75,75"><defs><linearGradient x1="235.59417" y1="179.67604" x2="235.59417" y2="180.41035" gradientUnits="userSpaceOnUse" id="color-1"><stop offset="0" stop-color="#000000"/><stop offset="1" stop-color="#4a4a4a"/></linearGradient><linearGradient x1="244.40584" y1="179.67604" x2="244.40584" y2="180.41035" gradientUnits="userSpaceOnUse" id="color-2"><stop offset="0" stop-color="#000000"/><stop offset="1" stop-color="#4a4a4a"/></linearGradient></defs><g transform="translate(-202.5,-142.5)"><g data-paper-data="{&quot;isPaintingLayer&quot;:true}" fill-rule="nonzero" stroke-linecap="butt" stroke-linejoin="miter" stroke-miterlimit="10" stroke-dasharray="" stroke-dashoffset="0" style="mix-blend-mode: normal"><g fill="#000000" stroke="#ffffff" stroke-width="1"><path d="M248.16644,185.70603c0,1.45863 -1.18299,2.64131 -2.64131,2.64131h-11.05055c-1.45863,0 -2.64101,-1.18299 -2.64101,-2.64131v-11.41236c0,-1.45863 1.18238,-2.64101 2.64101,-2.64101h11.05024c1.45925,0 2.64131,1.18238 2.64131,2.64101v11.41236z" data-paper-data="{&quot;index&quot;:null}"/><g><path d="M230.92915,173.17151c0,-1.04965 1.37121,-1.19294 2.82924,-1.68458c1.40911,-0.47514 2.91563,-0.44493 2.91563,0.60472c0,1.04965 -2.75916,4.27625 -3.73632,4.27625c-1.53869,0 -2.00854,-2.14674 -2.00854,-3.19639z"/><path d="M249.07084,173.17151c0,1.04965 -0.46986,3.19639 -2.00855,3.19639c-0.97716,0 -3.73632,-3.2266 -3.73632,-4.27625c0,-1.04965 1.50652,-1.07986 2.91562,-0.60472c1.45803,0.49164 2.82924,0.63493 2.82924,1.68458z" data-paper-data="{&quot;index&quot;:null}"/></g></g><path d="M248.16644,185.70603c0,1.45863 -1.18299,2.64131 -2.64131,2.64131h-11.05055c-1.45863,0 -2.64101,-1.18299 -2.64101,-2.64131v-11.41236c0,-1.45863 1.18238,-2.64101 2.64101,-2.64101h11.05024c1.45925,0 2.64131,1.18238 2.64131,2.64101v11.41236z" data-paper-data="{&quot;index&quot;:null}" fill="#ffa7da" stroke="none" stroke-width="1"/><path d="M202.5,217.5v-75h75v75z" fill="none" stroke="none" stroke-width="0"/><path d="M231.88795,175.16769c0,-1.10875 0.82234,-2.31348 1.93108,-2.31348c0.73314,0 1.22153,-0.06589 1.57193,0.52092c0.17952,0.30064 1.00922,1.41694 1.00922,1.79255c0,1.10875 -1.39593,2.00756 -2.50467,2.00756c-0.58363,0 -1.22381,0.36278 -1.59062,-0.03483c-0.33004,-0.35775 -0.41694,-1.44761 -0.41694,-1.97273z" fill="#846175" stroke="none" stroke-width="0"/><g stroke="none" stroke-width="0"><path d="M230.92915,173.17151c0,-1.04965 1.37121,-1.19294 2.82924,-1.68458c1.40911,-0.47514 2.91563,-0.44493 2.91563,0.60472c0,1.04965 -2.75916,4.27625 -3.73632,4.27625c-1.53869,0 -2.00854,-2.14674 -2.00854,-3.19639z" fill="#ff73b6"/><path d="M249.07084,173.17151c0,1.04965 -0.46986,3.19639 -2.00855,3.19639c-0.97716,0 -3.73632,-3.2266 -3.73632,-4.27625c0,-1.04965 1.50652,-1.07986 2.91562,-0.60472c1.45803,0.49164 2.82924,0.63493 2.82924,1.68458z" data-paper-data="{&quot;index&quot;:null}" fill="#846175"/></g><path d="M239.68877,175.91335c0,-1.16154 2.0888,-1.49133 3.25034,-1.49133c1.16154,0 1.38016,-0.41766 2.56203,1.68253c0.3812,0.67739 -0.66652,1.48275 -0.70501,1.86033c-0.13386,1.31302 -0.34307,2.57543 -1.24519,2.57543c-0.4357,0 -1.9494,-1.62382 -2.28512,-1.85071c-0.55929,-0.37798 -1.57705,-2.0504 -1.57705,-2.77624z" fill="#846175" stroke="none" stroke-width="0"/><g stroke="none" stroke-width="0"><g fill="#ffffff"><path d="M233.13208,179.13611c0,-1.19278 0.96694,-2.15972 2.15972,-2.15972c1.19278,0 2.15973,0.96694 2.15973,2.15972c0,1.19278 -0.96695,2.15973 -2.15973,2.15973c-1.19278,0 -2.15972,-0.96695 -2.15972,-2.15973z"/><path d="M242.54847,179.13611c0,-1.19278 0.96694,-2.15973 2.15972,-2.15973c1.19278,0 2.15973,0.96695 2.15973,2.15973c0,1.19278 -0.96695,2.15973 -2.15973,2.15973c-1.19278,0 -2.15972,-0.96695 -2.15972,-2.15973z"/></g><g><g><path d="M234.23354,179.2225c0,-0.75145 0.60917,-1.36062 1.36062,-1.36062c0.75145,0 1.36062,0.60917 1.36062,1.36062c0,0.75145 -0.60917,1.36063 -1.36062,1.36063c-0.75145,0 -1.36062,-0.60917 -1.36062,-1.36063z" fill="#000000"/><path d="M234.5791,178.87694c0,-0.32205 0.26108,-0.58312 0.58312,-0.58312c0.32205,0 0.58312,0.26108 0.58312,0.58312c0,0.32205 -0.26108,0.58312 -0.58312,0.58312c-0.32205,0 -0.58312,-0.26108 -0.58312,-0.58312z" fill="#ffffff"/><path d="M235.59417,179.67604c0.41747,0 0.7559,0.16437 0.7559,0.36715c0,0.20277 -0.33843,0.36715 -0.7559,0.36715c-0.41748,0 -0.75591,-0.16437 -0.75591,-0.36715c0,-0.20277 0.33844,-0.36715 0.75591,-0.36715z" fill="url(#color-1)"/></g><g><path d="M243.04521,179.2225c0,-0.75145 0.60917,-1.36062 1.36062,-1.36062c0.75145,0 1.36062,0.60917 1.36062,1.36062c0,0.75145 -0.60917,1.36063 -1.36062,1.36063c-0.75145,0 -1.36062,-0.60917 -1.36062,-1.36063z" fill="#000000"/><path d="M243.39077,178.87694c0,-0.32205 0.26108,-0.58312 0.58313,-0.58312c0.32205,0 0.58312,0.26108 0.58312,0.58312c0,0.32205 -0.26108,0.58312 -0.58312,0.58312c-0.32205,0 -0.58313,-0.26108 -0.58313,-0.58312z" fill="#ffffff"/><path d="M244.40583,179.67604c0.41748,0 0.75591,0.16437 0.75591,0.36715c0,0.20277 -0.33844,0.36715 -0.75591,0.36715c-0.41747,0 -0.7559,-0.16437 -0.7559,-0.36715c0,-0.20277 0.33843,-0.36715 0.7559,-0.36715z" fill="url(#color-2)"/></g></g></g><path d="M233.79186,182.58911c0.93354,-0.46688 1.54336,-0.09311 2.37098,0.46854c0.80682,0.54753 1.84339,1.26414 1.84339,2.28169c0,0.62032 0.49381,1.76887 0.08268,2.28022c-0.44969,0.55931 -1.83934,0.45389 -2.64471,0.45389c-1.54168,0 -3.0209,-1.43529 -3.0209,-2.73411c0,-0.86098 0.5492,-2.34045 1.36856,-2.75023z" fill="#846175" stroke="none" stroke-width="0"/><g stroke="none" stroke-width="0"><path d="M240.00001,180.28688c2.75211,0 4.98314,2.53103 4.98314,4.2539c0,1.72287 -2.23103,1.49899 -4.98314,1.49899c-2.75211,0 -4.98314,0.22388 -4.98314,-1.49899c0,-1.72287 2.23103,-4.2539 4.98314,-4.2539z" fill="#ff73b6"/><g><g data-paper-data="{&quot;index&quot;:null}"><path d="M239.32946,183.71473c0,0.92952 -0.50235,1.68305 -1.12203,1.68305c-0.61968,0 -1.12203,-0.75353 -1.12203,-1.68305c0,-0.92952 0.50235,-1.68304 1.12203,-1.68304c0.61968,0 1.12203,0.75352 1.12203,1.68304z" fill="#a92c4a"/><path d="M239.19988,183.56355c0,0.77446 -0.40566,1.40228 -0.90606,1.40228c-0.5004,0 -0.90606,-0.62782 -0.90606,-1.40228c0,-0.77446 0.40565,-1.40228 0.90606,-1.40228c0.5004,0 0.90606,0.62782 0.90606,1.40228z" fill="#6b2647"/></g><g><path d="M241.79257,182.03169c0.61968,0 1.12203,0.75352 1.12203,1.68304c0,0.92952 -0.50235,1.68305 -1.12203,1.68305c-0.61968,0 -1.12203,-0.75353 -1.12203,-1.68305c0,-0.92952 0.50235,-1.68304 1.12203,-1.68304z" fill="#a92c4a"/><path d="M241.70618,182.16127c0.5004,0 0.90606,0.62782 0.90606,1.40228c0,0.77446 -0.40566,1.40228 -0.90606,1.40228c-0.5004,0 -0.90605,-0.62782 -0.90605,-1.40228c0,-0.77446 0.40565,-1.40228 0.90605,-1.40228z" fill="#6b2647"/></g></g></g></g></g></svg>