<svg version="1.1" xmlns="http://www.w3.org/2000/svg" xmlns:xlink="http://www.w3.org/1999/xlink" width="44.48864" height="44.48864" viewBox="0,0,44.48864,44.48864"><defs><radialGradient cx="240" cy="180" r="12.3125" gradientUnits="userSpaceOnUse" id="color-1"><stop offset="0" stop-color="#ffffff" stop-opacity="0.26159"/><stop offset="1" stop-color="#ffffff" stop-opacity="0"/></radialGradient></defs><g transform="translate(-217.75568,-157.75568)"><g data-paper-data="{&quot;isPaintingLayer&quot;:true}" fill-rule="nonzero" stroke="none" stroke-linecap="butt" stroke-linejoin="miter" stroke-miterlimit="10" stroke-dasharray="" stroke-dashoffset="0" style="mix-blend-mode: normal"><path d="M217.75568,202.24432v-44.48864h44.48864v44.48864z" fill="none" stroke-width="NaN"/><g><path d="M227.6875,180c0,-6.8 5.5125,-12.3125 12.3125,-12.3125c6.8,0 12.3125,5.5125 12.3125,12.3125c0,6.8 -5.5125,12.3125 -12.3125,12.3125c-6.8,0 -12.3125,-5.5125 -12.3125,-12.3125z" fill="url(#color-1)" stroke-width="0"/><path d="M239.89199,183.78058c0,0 -0.26504,-1.94374 -0.94293,-2.62163c-0.6204,-0.6204 -2.96726,-1.28855 -2.96726,-1.28855c0,0 2.0321,-0.15592 2.67101,-0.79482c0.66355,-0.66355 1.23918,-3.11538 1.23918,-3.11538c0,0 0.51886,2.39505 1.18979,3.06601c0.62984,0.62984 2.72038,0.84418 2.72038,0.84418c0,0 -2.16941,0.58947 -2.76976,1.18979c-0.69041,0.69041 -1.14042,2.72038 -1.14042,2.72038z" fill="#ffefcc" stroke-width="NaN"/></g></g></g></svg>