<svg version="1.1" xmlns="http://www.w3.org/2000/svg" xmlns:xlink="http://www.w3.org/1999/xlink" width="47.125" height="47.125" viewBox="0,0,47.125,47.125"><g transform="translate(-216.4375,-156.4375)"><g data-paper-data="{&quot;isPaintingLayer&quot;:true}" fill-rule="nonzero" stroke-linecap="butt" stroke-linejoin="miter" stroke-miterlimit="10" stroke-dasharray="" stroke-dashoffset="0" style="mix-blend-mode: normal"><g><path d="M216.43751,203.5625v-47.125h47.125v47.125z" fill="none" stroke="none" stroke-width="NaN"/><g><path d="M235.55739,185.84149l1.75008,-5.30748l-4.36059,-2.90412l5.32524,-0.02137l1.7238,-5.22778l1.72582,5.23391l5.33143,-0.00042l-4.37292,2.92793l1.75418,5.29933l-4.41855,-3.30624z" data-paper-data="{&quot;index&quot;:null}" fill-opacity="0.60392" fill="#ffffff" stroke="none" stroke-width="0"/><g fill="none" stroke="#ffffff" stroke-width="1.5"><path d="M235.73502,168.9531c1.32444,-0.51219 2.76403,-0.79306 4.26922,-0.79306c1.59677,0 3.1197,0.31609 4.50966,0.88911"/><path d="M247.47075,170.81059c2.24696,1.82792 3.81063,4.46347 4.24869,7.46431"/><path d="M251.6846,182.2514c-0.45752,2.76275 -1.87153,4.89995 -3.89042,6.66519"/><path d="M244.75533,190.84815c-1.4543,0.63784 -3.06137,0.99181 -4.75112,0.99181c-1.73007,0 -3.37348,-0.37107 -4.85498,-1.03797"/><path d="M232.03132,188.75324c-1.89518,-1.72722 -3.22733,-4.06162 -3.68889,-6.69561"/><path d="M228.28058,178.3339c0.43232,-3.06968 2.04177,-5.76135 4.35716,-7.60378"/></g></g></g></g></g></svg>