<svg version="1.1" xmlns="http://www.w3.org/2000/svg" xmlns:xlink="http://www.w3.org/1999/xlink" width="19.02697" height="12.68075" viewBox="0,0,19.02697,12.68075"><g transform="translate(-230.06074,-179.33583)"><g data-paper-data="{&quot;isPaintingLayer&quot;:true}" fill-rule="nonzero" stroke-linecap="butt" stroke-linejoin="miter" stroke-miterlimit="10" stroke-dasharray="" stroke-dashoffset="0" style="mix-blend-mode: normal"><g data-paper-data="{&quot;index&quot;:null}" fill="#8dff36" stroke="#295e00" stroke-width="0.75"><path d="M234.85221,191.60663v-7.10599h8.52538v7.10599z"/><path d="M234.45288,191.57518l-4.01714,-1.96294v-3.23159l4.01331,-1.8261l0.11342,0.06552v6.86713z"/><path d="M246.79559,189.78014v-3.73103h1.91712v3.73103z"/><path d="M246.92606,184.67097v6.81007l-0.0992,0.06498l-3.26433,-1.13253v-4.74626l3.26768,-1.08351z" data-paper-data="{&quot;index&quot;:null}"/></g><g data-paper-data="{&quot;index&quot;:null}" fill="#5abb0f" stroke="#510808" stroke-width="0"><path d="M235.28971,191.10663v-1.60599h7.55663v1.60599z"/><path d="M230.967,189.29974v-0.48159l3.12672,0.61442v1.46088z"/><path d="M247.42059,189.37389v-0.79353h0.76087v0.79353z"/><path d="M246.45731,190.20222v0.74757l-2.45728,-0.88005v-0.65251z" data-paper-data="{&quot;index&quot;:null}"/></g><path d="M233.61501,185.47084v-1.2147l9.76221,-0.68057l0.59801,-3.86274l1.0737,0.00665v5.75136z" data-paper-data="{&quot;index&quot;:null}" fill="#5abb0f" stroke="#295e00" stroke-width="0.75"/></g></g></svg>