<svg version="1.1" xmlns="http://www.w3.org/2000/svg" xmlns:xlink="http://www.w3.org/1999/xlink" width="717.23123" height="154.22248" viewBox="0,0,717.23123,154.22248"><defs><linearGradient x1="240.5" y1="180.53514" x2="240.5" y2="349.50663" gradientUnits="userSpaceOnUse" id="color-1"><stop offset="0" stop-color="#0f1aba"/><stop offset="1" stop-color="#0d115c"/></linearGradient><linearGradient x1="59.29515" y1="185.46599" x2="59.29515" y2="291.99478" gradientUnits="userSpaceOnUse" id="color-2"><stop offset="0" stop-color="#000000" stop-opacity="0.16961"/><stop offset="1" stop-color="#000000" stop-opacity="0.0557"/></linearGradient><linearGradient x1="178.03613" y1="185.46599" x2="178.03613" y2="291.99478" gradientUnits="userSpaceOnUse" id="color-3"><stop offset="0" stop-color="#000000" stop-opacity="0.16961"/><stop offset="1" stop-color="#000000" stop-opacity="0.0557"/></linearGradient><linearGradient x1="298.37787" y1="185.46598" x2="298.37787" y2="291.99478" gradientUnits="userSpaceOnUse" id="color-4"><stop offset="0" stop-color="#000000" stop-opacity="0.16961"/><stop offset="1" stop-color="#000000" stop-opacity="0.0557"/></linearGradient><linearGradient x1="419.12858" y1="185.46598" x2="419.12858" y2="291.99478" gradientUnits="userSpaceOnUse" id="color-5"><stop offset="0" stop-color="#000000" stop-opacity="0.16961"/><stop offset="1" stop-color="#000000" stop-opacity="0.0557"/></linearGradient></defs><g transform="translate(118.86562,-140.10718)"><g data-paper-data="{&quot;isPaintingLayer&quot;:true}" fill-rule="nonzero" stroke="none" stroke-linecap="butt" stroke-linejoin="miter" stroke-miterlimit="10" stroke-dasharray="" stroke-dashoffset="0" style="mix-blend-mode: normal"><path d="M-118.86561,186.10719v-46h717.23123v46z" data-paper-data="{&quot;index&quot;:null}" fill="none" stroke-width="0"/><path d="M-0.5,274.47675v-93.94163h482v93.94163z" data-paper-data="{&quot;index&quot;:null}" fill="url(#color-1)" stroke-width="0"/><path d="M-3.25,186.10719v-46h486v46z" data-paper-data="{&quot;index&quot;:null}" fill="none" stroke-width="0"/><g data-paper-data="{&quot;index&quot;:null}"><path d="M6.90955,294.32966v-2.9186l107.07555,-0.14593l-0.15363,-103.46429h2.76522v106.52882z" fill-opacity="0.34287" fill="#000000" stroke-width="NaN"/><path d="M4.45157,291.99478v-106.52882h109.68716v106.52882z" fill="url(#color-2)" stroke-width="NaN"/></g><g data-paper-data="{&quot;index&quot;:null}"><path d="M125.65053,294.32966v-2.9186l107.07556,-0.14593l-0.15364,-103.46429h2.76523v106.52882z" fill-opacity="0.34287" fill="#000000" stroke-width="NaN"/><path d="M123.19256,291.99478v-106.52882h109.68715v106.52882z" fill="url(#color-3)" stroke-width="NaN"/></g><g data-paper-data="{&quot;index&quot;:null}"><path d="M245.99227,294.32966v-2.9186l107.07555,-0.14593l-0.15364,-103.46429h2.76523v106.52882z" fill-opacity="0.34287" fill="#000000" stroke-width="NaN"/><path d="M243.5343,291.99478v-106.52882h109.68716v106.52882z" fill="url(#color-4)" stroke-width="NaN"/></g><g data-paper-data="{&quot;index&quot;:null}"><path d="M366.74298,294.32966v-2.9186l107.07556,-0.14593l-0.15364,-103.46429h2.76522v106.52882z" fill-opacity="0.34287" fill="#000000" stroke-width="NaN"/><path d="M364.28501,291.99478v-106.52882h109.68715v106.52882z" fill="url(#color-5)" stroke-width="NaN"/></g></g></g></svg>