<svg version="1.1" xmlns="http://www.w3.org/2000/svg" xmlns:xlink="http://www.w3.org/1999/xlink" width="548" height="669.74279" viewBox="0,0,548,669.74279"><defs><linearGradient x1="37.18887" y1="267.09191" x2="37.18887" y2="326.95194" gradientUnits="userSpaceOnUse" id="color-1"><stop offset="0" stop-color="#000000" stop-opacity="0.13344"/><stop offset="1" stop-color="#000000" stop-opacity="0.05544"/></linearGradient><linearGradient x1="441.84068" y1="122.59551" x2="441.84068" y2="175.44622" gradientUnits="userSpaceOnUse" id="color-2"><stop offset="0" stop-color="#000000" stop-opacity="0.13344"/><stop offset="1" stop-color="#000000" stop-opacity="0.05544"/></linearGradient><linearGradient x1="441.84068" y1="62.35859" x2="441.84068" y2="115.2093" gradientUnits="userSpaceOnUse" id="color-3"><stop offset="0" stop-color="#000000" stop-opacity="0.13344"/><stop offset="1" stop-color="#000000" stop-opacity="0.05544"/></linearGradient><linearGradient x1="231.18987" y1="218.59192" x2="231.18987" y2="313.55671" gradientUnits="userSpaceOnUse" id="color-4"><stop offset="0" stop-color="#000000" stop-opacity="0.13344"/><stop offset="1" stop-color="#000000" stop-opacity="0.05544"/></linearGradient><linearGradient x1="124.18987" y1="218.59192" x2="124.18987" y2="313.55671" gradientUnits="userSpaceOnUse" id="color-5"><stop offset="0" stop-color="#000000" stop-opacity="0.13344"/><stop offset="1" stop-color="#000000" stop-opacity="0.05544"/></linearGradient><linearGradient x1="97.68886" y1="145.59192" x2="97.68886" y2="205.45194" gradientUnits="userSpaceOnUse" id="color-6"><stop offset="0" stop-color="#000000" stop-opacity="0.13344"/><stop offset="1" stop-color="#000000" stop-opacity="0.05544"/></linearGradient><linearGradient x1="32.84068" y1="205.09551" x2="32.84068" y2="257.94622" gradientUnits="userSpaceOnUse" id="color-7"><stop offset="0" stop-color="#000000" stop-opacity="0.13344"/><stop offset="1" stop-color="#000000" stop-opacity="0.05544"/></linearGradient><linearGradient x1="32.84068" y1="144.85858" x2="32.84068" y2="197.70931" gradientUnits="userSpaceOnUse" id="color-8"><stop offset="0" stop-color="#000000" stop-opacity="0.13344"/><stop offset="1" stop-color="#000000" stop-opacity="0.05544"/></linearGradient><linearGradient x1="347.16939" y1="61.00246" x2="347.16939" y2="174.96971" gradientUnits="userSpaceOnUse" id="color-9"><stop offset="0" stop-color="#000000" stop-opacity="0.13344"/><stop offset="1" stop-color="#000000" stop-opacity="0.05544"/></linearGradient><linearGradient x1="380.36431" y1="189.11737" x2="380.36431" y2="370.96212" gradientUnits="userSpaceOnUse" id="color-10"><stop offset="0" stop-color="#000000" stop-opacity="0.13344"/><stop offset="1" stop-color="#000000" stop-opacity="0.05544"/></linearGradient><linearGradient x1="202.94736" y1="-38.05488" x2="202.94736" y2="110.30606" gradientUnits="userSpaceOnUse" id="color-11"><stop offset="0" stop-color="#000000" stop-opacity="0.13344"/><stop offset="1" stop-color="#000000" stop-opacity="0.05544"/></linearGradient><linearGradient x1="62.47354" y1="18.79532" x2="62.47354" y2="132.76259" gradientUnits="userSpaceOnUse" id="color-12"><stop offset="0" stop-color="#000000" stop-opacity="0.13344"/><stop offset="1" stop-color="#000000" stop-opacity="0.05544"/></linearGradient><linearGradient x1="379.13486" y1="-137.49537" x2="379.13486" y2="41.8354" gradientUnits="userSpaceOnUse" id="color-13"><stop offset="0" stop-color="#000000" stop-opacity="0.13344"/><stop offset="1" stop-color="#000000" stop-opacity="0.05544"/></linearGradient><linearGradient x1="176.2492" y1="326.77186" x2="176.2492" y2="527.29105" gradientUnits="userSpaceOnUse" id="color-14"><stop offset="0" stop-color="#000000" stop-opacity="0.13344"/><stop offset="1" stop-color="#000000" stop-opacity="0.05544"/></linearGradient><linearGradient x1="62.36243" y1="-106.39913" x2="62.36243" y2="7.56809" gradientUnits="userSpaceOnUse" id="color-15"><stop offset="0" stop-color="#000000" stop-opacity="0.13344"/><stop offset="1" stop-color="#000000" stop-opacity="0.05544"/></linearGradient><linearGradient x1="234.88251" y1="122.25858" x2="234.88251" y2="207.734" gradientUnits="userSpaceOnUse" id="color-16"><stop offset="0" stop-color="#000000" stop-opacity="0.13344"/><stop offset="1" stop-color="#000000" stop-opacity="0.05544"/></linearGradient><linearGradient x1="161.15112" y1="169.0586" x2="161.15112" y2="209.59357" gradientUnits="userSpaceOnUse" id="color-17"><stop offset="0" stop-color="#000000" stop-opacity="0.13344"/><stop offset="1" stop-color="#000000" stop-opacity="0.05544"/></linearGradient><linearGradient x1="161.15112" y1="122.85859" x2="161.15112" y2="163.39358" gradientUnits="userSpaceOnUse" id="color-18"><stop offset="0" stop-color="#000000" stop-opacity="0.13344"/><stop offset="1" stop-color="#000000" stop-opacity="0.05544"/></linearGradient><linearGradient x1="37.18887" y1="334.09191" x2="37.18887" y2="393.95195" gradientUnits="userSpaceOnUse" id="color-19"><stop offset="0" stop-color="#000000" stop-opacity="0.13344"/><stop offset="1" stop-color="#000000" stop-opacity="0.05544"/></linearGradient></defs><g transform="translate(32.5,137.49539)"><g data-paper-data="{&quot;isPaintingLayer&quot;:true}" fill-rule="nonzero" stroke="none" stroke-linecap="butt" stroke-linejoin="miter" stroke-miterlimit="10" stroke-dasharray="" stroke-dashoffset="0" style="mix-blend-mode: normal"><path d="M-32.5,-67.49998v-10h548v10z" fill="none" stroke-width="0"/><g><path d="M7.91486,324.7926v-57.7007h56.38871v57.7007z" fill="url(#color-1)" stroke-width="NaN"/><path d="M415.99451,173.53976v-50.94425h49.78588v50.94425z" fill="url(#color-2)" stroke-width="NaN"/><path d="M415.99451,113.30284v-50.94425h49.78588v50.94425z" fill="url(#color-3)" stroke-width="NaN"/><path d="M184.74818,310.13104v-91.53914h89.45773v91.53914z" fill="url(#color-4)" stroke-width="NaN"/><path d="M77.74819,310.13106v-91.53915h89.45773v91.53915z" fill="url(#color-5)" stroke-width="NaN"/><path d="M68.41485,203.29263v-57.70071h56.38871v57.70071z" fill="url(#color-6)" stroke-width="NaN"/><path d="M6.99451,256.03977v-50.94425h49.78587v50.94425z" fill="url(#color-7)" stroke-width="NaN"/><path d="M6.99451,195.80284v-50.94425h49.78587v50.94425z" fill="url(#color-8)" stroke-width="NaN"/><path d="M291.43474,174.96971v-113.96723h111.46932v113.96723z" fill="url(#color-9)" stroke-width="NaN"/><path d="M291.43474,370.96212v-181.84477h177.85913v181.84477z" fill="url(#color-10)" stroke-width="NaN"/><path d="M130.39277,110.30606v-148.36094h145.1092v148.36094z" fill="url(#color-11)" stroke-width="NaN"/><path d="M6.73889,132.76259v-113.96723h111.46932v113.96723z" fill="url(#color-12)" stroke-width="NaN"/><path d="M291.43474,41.8354v-179.33078h175.40025v179.33078z" fill="url(#color-13)" stroke-width="NaN"/><path d="M78.18709,527.29105v-200.51918h196.12424v200.51918z" fill="url(#color-14)" stroke-width="NaN"/><path d="M6.62778,7.56809v-113.96723h111.46932v113.96723z" fill="url(#color-15)" stroke-width="NaN"/><path d="M193.08152,204.65067v-82.39209h80.51866v82.39209z" fill="url(#color-16)" stroke-width="NaN"/><path d="M141.32785,208.13137v-39.07279h38.18435v39.07279z" fill="url(#color-17)" stroke-width="NaN"/><path d="M141.32784,161.93137v-39.07278h38.18435v39.07278z" fill="url(#color-18)" stroke-width="NaN"/><path d="M7.91486,391.79263v-57.7007h56.38871v57.7007z" fill="url(#color-19)" stroke-width="NaN"/></g><g fill-opacity="0.14315" fill="#000000"><path d="M9.31245,328.62968v-3.79932l54.9947,-0.082l-0.082,-55.97871h3.63532v59.86003z" stroke-width="NaN"/><path d="M417.22845,176.92752v-3.35443l48.5551,-0.07241l-0.0724,-49.42388h3.20964v52.85071z" stroke-width="NaN"/><path d="M417.22845,116.69058v-3.35443l48.5551,-0.0724l-0.0724,-49.42388h3.20964v52.85072z" stroke-width="NaN"/><path d="M186.96539,314.811v-4.62007l87.24622,-0.13009l-0.13009,-88.80729h4.35989v93.55745z" stroke-width="NaN"/><path d="M79.96539,314.811v-4.62007l87.24622,-0.13009l-0.13009,-88.80729h4.35989v93.55745z" stroke-width="NaN"/><path d="M69.81244,207.12968v-3.79932l54.9947,-0.082l-0.082,-55.97871h3.63532v59.86002z" stroke-width="NaN"/><path d="M8.22845,259.4275v-3.35443l48.55511,-0.0724l-0.0724,-49.42388h3.20964v52.85071z" stroke-width="NaN"/><path d="M8.22845,199.19058v-3.35443l48.55511,-0.0724l-0.0724,-49.42388h3.20964v52.85071z" stroke-width="NaN"/><path d="M294.16598,178.10094v-3.12239l108.81529,-0.15612l-0.15612,-110.68871h2.81015v113.96723z" stroke-width="NaN"/><path d="M295.6537,375.58109v-4.98205l173.62439,-0.2491l-0.2491,-176.61362h4.48384v181.84477z" stroke-width="NaN"/><path d="M133.98896,114.41337v-4.06469l141.65422,-0.20323l-0.20324,-144.09302h3.65822v148.36094z" stroke-width="NaN"/><path d="M9.24791,135.78269v-3.12239l108.81529,-0.15612l-0.15612,-110.68872h2.81015v113.96723z" stroke-width="NaN"/><path d="M295.5986,46.95484v-4.91318l171.22406,-0.24566l-0.24566,-174.17195h4.42186v179.33078z" stroke-width="NaN"/><path d="M9.24791,10.92157v-3.12239l108.81529,-0.15612l-0.15612,-110.68872h2.81015v113.96723z" stroke-width="NaN"/><path d="M82.59397,532.2474v-5.49368l191.45462,-0.27468l-0.27469,-194.75082h4.9443v200.51918z" stroke-width="NaN"/><path d="M195.07717,209.46301v-4.75846l78.52813,-0.11709l-0.11709,-79.93321h4.52428v84.80875z" stroke-width="NaN"/><path d="M142.27424,211.72967v-3.57275l37.24038,-0.05553l-0.05553,-37.9067h3.4617v41.53499z" stroke-width="NaN"/><path d="M142.27424,165.52969v-3.57276l37.24038,-0.05553l-0.05553,-37.90671h3.4617v41.53499z" stroke-width="NaN"/><path d="M9.31245,395.62968v-3.79932l54.99471,-0.082l-0.082,-55.97871h3.63531v59.86003z" stroke-width="NaN"/></g></g></g></svg>