<svg version="1.1" xmlns="http://www.w3.org/2000/svg" xmlns:xlink="http://www.w3.org/1999/xlink" width="47.125" height="47.125" viewBox="0,0,47.125,47.125"><g transform="translate(-296.4375,-156.4375)"><g data-paper-data="{&quot;isPaintingLayer&quot;:true}" fill-rule="nonzero" stroke-linecap="butt" stroke-linejoin="miter" stroke-miterlimit="10" stroke-dasharray="" stroke-dashoffset="0" style="mix-blend-mode: normal"><path d="M296.43751,203.5625v-47.125h47.125v47.125z" fill="none" stroke="none" stroke-width="NaN"/><path d="M311.99016,180c0,-4.42372 3.58613,-8.00985 8.00985,-8.00985c4.42372,0 8.00985,3.58613 8.00985,8.00985c0,4.42372 -3.58613,8.00985 -8.00985,8.00985c-4.42372,0 -8.00985,-3.58613 -8.00985,-8.00985z" fill-opacity="0.25" fill="#fbff00" stroke="#ffffff" stroke-width="0"/><g stroke="#ffffff" stroke-width="0.5"><path d="M313.98997,180c0,-3.31924 2.69078,-6.01003 6.01003,-6.01003c3.31924,0 6.01003,2.69078 6.01003,6.01003c0,3.31924 -2.69078,6.01003 -6.01003,6.01003c-3.31924,0 -6.01003,-2.69078 -6.01003,-6.01003z" fill="none"/><path d="M315.83609,180c0,-2.29967 1.86424,-4.16392 4.16392,-4.16392c2.29967,0 4.16392,1.86424 4.16392,4.16392c0,2.29967 -1.86424,4.16392 -4.16392,4.16392c-2.29967,0 -4.16392,-1.86424 -4.16392,-4.16392z" fill="#fbff00"/></g></g></g></svg>