<svg version="1.1" xmlns="http://www.w3.org/2000/svg" xmlns:xlink="http://www.w3.org/1999/xlink" width="74" height="74" viewBox="0,0,74,74"><g transform="translate(-203,-143)"><g data-paper-data="{&quot;isPaintingLayer&quot;:true}" fill-rule="nonzero" stroke="none" stroke-width="0" stroke-linecap="butt" stroke-linejoin="miter" stroke-miterlimit="10" stroke-dasharray="" stroke-dashoffset="0" style="mix-blend-mode: normal"><path d="M237.87887,188.04787c0,-0.76147 0.95513,-1.37877 2.13333,-1.37877c1.17821,0 2.13333,0.6173 2.13333,1.37877c0,0.12201 -0.00389,0.05138 -0.00389,0.05138l-4.28719,-0.00303c0,0 0.02441,0.10407 0.02441,-0.04834z" fill="#000000"/><g><path d="M239.56667,186.2v-2.2h0.86667v2.2z" fill="#000000"/><path d="M239.56667,183.45v-2.2h0.86667v2.2z" fill-opacity="0.8" fill="#000000"/><path d="M239.56667,180.7v-2.2h0.86667v2.2z" fill-opacity="0.6" fill="#000000"/><path d="M239.56667,178.01111v-2.2h0.86667v2.2z" fill-opacity="0.4" fill="#000000"/><path d="M239.56667,175.2v-2.2h0.86667v2.2z" fill-opacity="0.2" fill="#000000"/></g><path d="M237.76667,170.4c0,-1.23343 0.99989,-2.23333 2.23333,-2.23333c1.23343,0 2.23333,0.99989 2.23333,2.23333c0,1.23343 -0.99989,2.23333 -2.23333,2.23333c-1.23343,0 -2.23333,-0.99989 -2.23333,-2.23333z" fill-opacity="0.69412" fill="#ffffff"/><path d="M203,217v-74h74v74z" fill="none"/></g></g></svg>