<svg version="1.1" xmlns="http://www.w3.org/2000/svg" xmlns:xlink="http://www.w3.org/1999/xlink" width="22.95" height="22.95" viewBox="0,0,22.95,22.95"><g transform="translate(-228.525,-168.525)"><g data-paper-data="{&quot;isPaintingLayer&quot;:true}" fill-rule="nonzero" stroke="none" stroke-width="0" stroke-linecap="butt" stroke-linejoin="miter" stroke-miterlimit="10" stroke-dasharray="" stroke-dashoffset="0" style="mix-blend-mode: normal"><path d="M232.78087,184.06586l0,-5.53413l9.82381,2.76706z" data-paper-data="{&quot;index&quot;:null}" fill-opacity="0.76471" fill="#ffffff"/><path d="M232.78994,180.28014l0,-4.4627l7.92188,2.23135z" data-paper-data="{&quot;index&quot;:null}" fill-opacity="0.76471" fill="#ffffff"/><path d="M233.19709,178.14681v-6.19603l10.99877,3.09802z" data-paper-data="{&quot;index&quot;:null}" fill-opacity="0.76471" fill="#ffffff"/><path d="M233.04947,188.05159l0,-7.27939l12.42188,3.6397z" data-paper-data="{&quot;index&quot;:null}" fill-opacity="0.76471" fill="#ffffff"/><path d="M239.40494,171.96969l-6.20785,1.74856l0,-1.70039z" data-paper-data="{&quot;index&quot;:null}" fill-opacity="0.76471" fill="#ffffff"/><path d="M239.40493,187.96968l-6.20785,0.04817l0,-2.20992l6.94133,1.95516z" data-paper-data="{&quot;index&quot;:null}" fill-opacity="0.76471" fill="#ffffff"/><g data-paper-data="{&quot;index&quot;:null}" fill="#000000"><path d="M231.99997,172l1.31794,0l2.56781,1.72801l-2.38329,2.49764l1.41949,1.26752l-1.61034,1.84175l3.58391,1.43622l-3.70398,1.33245l1.40806,1.57615l-0.86977,1.15359l1.4003,1.56667l-1.96015,1.56937l-1.16995,0.03063z"/><path d="M232.13571,172.00715h0.93333l0,15.98571h-0.93333z"/></g><path d="M228.525,168.525l22.95,0v22.95h-22.95z" data-paper-data="{&quot;index&quot;:null}" fill="none"/></g></g></svg>