<svg version="1.1" xmlns="http://www.w3.org/2000/svg" xmlns:xlink="http://www.w3.org/1999/xlink" width="19.75684" height="23.27261" viewBox="0,0,19.75684,23.27261"><g transform="translate(-228.21875,-165.8746)"><g data-paper-data="{&quot;isPaintingLayer&quot;:true}" fill-rule="nonzero" stroke="none" stroke-width="0" stroke-linecap="butt" stroke-linejoin="miter" stroke-miterlimit="10" stroke-dasharray="" stroke-dashoffset="0" style="mix-blend-mode: normal"><path d="M240.125,173.82592c4.22843,0 7.65625,2.75625 7.65625,6.15625c0,3.4 -3.42782,6.15625 -7.65625,6.15625c-0.53866,0 -2.94769,-0.19402 -3.01723,-0.47711c-0.2929,-1.19242 1.02322,-0.57729 1.82968,-1.1872c0.81479,-0.6162 1.17444,-1.8371 -0.65868,-3.33301c-1.03913,-0.84798 -2.29118,-1.05338 -2.81077,-0.87993c-0.63455,0.21183 -0.45314,0.958 -0.90796,1.4055c-0.7406,0.72869 -1.82558,0.75675 -2.09129,-1.68449c-0.36789,-3.38004 3.42782,-6.15625 7.65625,-6.15625zM241.65625,185.07592c0.82843,0 1.5,-0.67157 1.5,-1.5c0,-0.82843 -0.67157,-1.5 -1.5,-1.5c-0.82843,0 -1.5,0.67157 -1.5,1.5c0,0.82843 0.67157,1.5 1.5,1.5z" fill="#e9c5a1"/><path d="M243.90625,181.98217c0,-0.60406 0.55219,-1.15625 1.15625,-1.15625c0.60406,0 1.09375,0.61469 1.09375,1.21875c0,0.60406 -0.48969,1.09375 -1.09375,1.09375c-0.60406,0 -1.15625,-0.55219 -1.15625,-1.15625z" fill="#e81e1e"/><path d="M244.15625,178.54467c0,-0.60406 0.55219,-1.15625 1.15625,-1.15625c0.60406,0 1.09375,0.61469 1.09375,1.21875c0,0.60406 -0.48969,1.09375 -1.09375,1.09375c-0.60406,0 -1.15625,-0.55219 -1.15625,-1.15625z" fill="#74bf19"/><path d="M241.28125,176.16967c0,-0.60406 0.55219,-1.15625 1.15625,-1.15625c0.60406,0 1.09375,0.61469 1.09375,1.21875c0,0.60406 -0.48969,1.09375 -1.09375,1.09375c-0.60406,0 -1.15625,-0.55219 -1.15625,-1.15625z" fill="#1e3ae8"/><path d="M239.52918,176.69754c-0.45123,0.40159 -1.23083,0.35623 -1.63242,-0.095c-0.40159,-0.45123 -0.26799,-1.2257 0.18324,-1.62729c0.45123,-0.40159 1.14259,-0.36136 1.54418,0.08988c0.40159,0.45123 0.35622,1.23083 -0.09501,1.63242z" fill="#8c1ee8"/><path d="M236.02918,178.32254c-0.45123,0.40159 -1.23083,0.35623 -1.63242,-0.095c-0.40159,-0.45123 -0.26799,-1.2257 0.18324,-1.62729c0.45123,-0.40159 1.14259,-0.36136 1.54418,0.08988c0.40159,0.45123 0.35622,1.23083 -0.09501,1.63242z" fill="#e6b100"/><g><path d="M228.72281,179.63307c-0.5821,-0.99914 -0.5001,-2.78281 -0.5001,-2.78281c0,0 0.42234,0.91116 1.63887,1.75769c0.94916,0.66048 0.86685,1.41181 0.37473,1.69852c-0.49211,0.28671 -0.93138,0.32574 -1.51349,-0.6734z" fill="#e9c5a1"/><path d="M232.81325,184.87604c-1.54498,-1.99059 -2.5211,-3.81874 -2.18025,-4.08329c0.34085,-0.26455 1.86962,1.13468 3.41459,3.12527c1.54497,1.99059 3.22066,5.06359 3.06162,5.21889c-0.19399,0.18943 -2.751,-2.27028 -4.29597,-4.26087z" fill="#5fd2ff"/><path d="M230.91414,181.91951l-1.02361,-1.42079l0.64186,-0.49817l1.12236,1.34414z" fill="#e6b100"/><path d="M228.22272,176.85026c0,0 0.42234,0.91116 1.63887,1.75769c0.09738,0.06777 0.26025,0.20557 0.26025,0.20557c0,0 -0.58386,0.44918 -0.76091,0.63764c-0.19968,0.21254 -0.37745,0.57405 -0.37745,0.57405c0,0 -0.1706,-0.23755 -0.26066,-0.39214c-0.5821,-0.99914 -0.5001,-2.78281 -0.5001,-2.78281z" fill="#74bf19"/></g><g fill="#5fd2ff"><path d="M232.5909,170.80475v-2.54545h11.45455v2.54545z"/><path d="M242.81818,165.87461l5.15741,3.61195l-5.15741,3.61195z"/></g></g></g></svg>