<svg version="1.1" xmlns="http://www.w3.org/2000/svg" xmlns:xlink="http://www.w3.org/1999/xlink" width="53.375" height="53.375" viewBox="0,0,53.375,53.375"><defs><radialGradient cx="240" cy="187.43865" r="7.72752" gradientUnits="userSpaceOnUse" id="color-1"><stop offset="0" stop-color="#ffffff"/><stop offset="1" stop-color="#ffffff" stop-opacity="0"/></radialGradient></defs><g transform="translate(-213.3125,-153.3125)"><g data-paper-data="{&quot;isPaintingLayer&quot;:true}" fill-rule="nonzero" stroke="none" stroke-width="0" stroke-linecap="butt" stroke-linejoin="miter" stroke-miterlimit="10" stroke-dasharray="" stroke-dashoffset="0" style="mix-blend-mode: normal"><path d="M213.3125,206.6875v-53.375h53.375v53.375z" fill="none"/><path d="M232.27248,187.43865c0,-4.26779 3.45973,-7.72752 7.72752,-7.72752c4.26779,0 7.72752,3.45973 7.72752,7.72752c0,0.26432 -0.03918,0.42194 -0.03918,0.42194l-15.38401,-0.00436c0,0 -0.03186,-0.17942 -0.03186,-0.41758z" fill="url(#color-1)"/><path d="M232,188c0,0 0.91861,-3.00054 8.02506,-3.00054c7.09761,0 7.97494,3.00054 7.97494,3.00054z" fill="#fbff00"/><path d="M233.86723,180.93201v-2.02216h2.02216v2.02216z" fill-opacity="0.62903" fill="#fbff00"/><path d="M239.13928,177.17658v-1.22774h1.22774v1.22774z" fill-opacity="0.48387" fill="#fbff00"/><path d="M243.61691,182.08753v-1.22774h1.22774v1.22774z" fill="#fbff00"/><path d="M242.53361,184.75967v-1.0833h1.0833v1.0833z" fill="#fbff00"/><path d="M236.82824,174.50444v-0.86664h0.86664v0.86664z" fill-opacity="0.37097" fill="#fbff00"/></g></g></svg>