<svg version="1.1" xmlns="http://www.w3.org/2000/svg" xmlns:xlink="http://www.w3.org/1999/xlink" width="47.125" height="47.125" viewBox="0,0,47.125,47.125"><g transform="translate(-296.4375,-156.4375)"><g data-paper-data="{&quot;isPaintingLayer&quot;:true}" fill-rule="nonzero" stroke-linecap="butt" stroke-linejoin="miter" stroke-miterlimit="10" stroke-dasharray="" stroke-dashoffset="0" style="mix-blend-mode: normal"><path d="M296.43751,203.5625v-47.125h47.125v47.125z" fill="none" stroke="none" stroke-width="NaN"/><path d="M311.99016,180c0,-4.42372 3.58613,-8.00985 8.00985,-8.00985c4.42372,0 8.00985,3.58613 8.00985,8.00985c0,4.42372 -3.58613,8.00985 -8.00985,8.00985c-4.42372,0 -8.00985,-3.58613 -8.00985,-8.00985z" fill-opacity="0.25" fill="#fbff00" stroke="#ffffff" stroke-width="0"/><g stroke="#ffffff" stroke-width="0.5"><path d="M315.37457,180c0,-2.55454 2.07087,-4.62541 4.62541,-4.62541c2.55454,0 4.62541,2.07087 4.62541,4.62541c0,2.55454 -2.07087,4.62541 -4.62541,4.62541c-2.55454,0 -4.62541,-2.07087 -4.62541,-4.62541z" fill="none"/><path d="M316.79537,180c0,-1.76986 1.43475,-3.20461 3.20461,-3.20461c1.76986,0 3.20461,1.43475 3.20461,3.20461c0,1.76986 -1.43475,3.20461 -3.20461,3.20461c-1.76986,0 -3.20461,-1.43475 -3.20461,-3.20461z" fill="#fbff00"/></g></g></g></svg>