<svg version="1.1" xmlns="http://www.w3.org/2000/svg" xmlns:xlink="http://www.w3.org/1999/xlink" width="47.125" height="47.125" viewBox="0,0,47.125,47.125"><g transform="translate(-216.4375,-156.4375)"><g data-paper-data="{&quot;isPaintingLayer&quot;:true}" fill-rule="nonzero" stroke-linecap="butt" stroke-linejoin="miter" stroke-miterlimit="10" stroke-dasharray="" stroke-dashoffset="0" style="mix-blend-mode: normal"><path d="M216.4375,203.5625v-47.125h47.125v47.125z" fill="none" stroke="none" stroke-width="NaN"/><g><path d="M236.90523,185.84149l1.21912,-5.30748l-3.03763,-2.90412l3.70961,-0.02137l1.20081,-5.22778l1.20223,5.23391l3.71393,-0.00042l-3.04622,2.92793l1.22198,5.29933l-3.07801,-3.30624z" data-paper-data="{&quot;index&quot;:null}" fill-opacity="0.60392" fill="#ffffff" stroke="none" stroke-width="0"/><g fill="none" stroke="#ffffff" stroke-width="1.5"><path d="M237.02897,168.9531c0.92262,-0.51219 1.92545,-0.79306 2.97398,-0.79306c1.11232,0 2.17322,0.31609 3.14148,0.88911"/><path d="M245.2042,170.8106c1.56526,1.82792 2.65453,4.46347 2.95968,7.4643"/><path d="M248.13961,182.2514c-0.31871,2.76275 -1.30372,4.89995 -2.7101,6.66519"/><path d="M243.31261,190.84815c-1.01308,0.63784 -2.13258,0.99182 -3.30967,0.99182c-1.20518,0 -2.35,-0.37107 -3.38203,-1.03797"/><path d="M234.44893,188.75325c-1.3202,-1.72722 -2.24819,-4.06162 -2.56972,-6.6956"/><path d="M231.83613,178.33391c0.30116,-3.06968 1.42232,-5.76135 3.03524,-7.60378"/></g></g></g></g></svg>