<svg version="1.1" xmlns="http://www.w3.org/2000/svg" xmlns:xlink="http://www.w3.org/1999/xlink" width="53.375" height="53.375" viewBox="0,0,53.375,53.375"><defs><radialGradient cx="240" cy="172.56135" r="7.72752" gradientUnits="userSpaceOnUse" id="color-1"><stop offset="0" stop-color="#ffffff"/><stop offset="1" stop-color="#ffffff" stop-opacity="0"/></radialGradient></defs><g transform="translate(-213.3125,-153.3125)"><g data-paper-data="{&quot;isPaintingLayer&quot;:true}" fill-rule="nonzero" stroke="none" stroke-width="0" stroke-linecap="butt" stroke-linejoin="miter" stroke-miterlimit="10" stroke-dasharray="" stroke-dashoffset="0" style="mix-blend-mode: normal"><path d="M266.6875,153.3125v53.375h-53.375v-53.375z" data-paper-data="{&quot;index&quot;:null}" fill="none"/><path d="M232.27247,172.56135c0,-0.23816 0.03186,-0.41758 0.03186,-0.41758l15.38401,-0.00436c0,0 0.03918,0.15762 0.03918,0.42194c0,4.26779 -3.45973,7.72752 -7.72752,7.72752c-4.26779,0 -7.72752,-3.45973 -7.72752,-7.72752z" data-paper-data="{&quot;index&quot;:null}" fill="url(#color-1)"/><path d="M248,172c0,0 -0.87733,3.00054 -7.97494,3.00054c-7.10645,0 -8.02506,-3.00054 -8.02506,-3.00054z" data-paper-data="{&quot;index&quot;:null}" fill="#fbff00"/><path d="M235.88939,179.06799v2.02216h-2.02216v-2.02216z" data-paper-data="{&quot;index&quot;:null}" fill-opacity="0.62903" fill="#fbff00"/><path d="M240.36702,182.82342v1.22774h-1.22774v-1.22774z" data-paper-data="{&quot;index&quot;:null}" fill-opacity="0.48387" fill="#fbff00"/><path d="M244.84465,177.91247v1.22774h-1.22774v-1.22774z" data-paper-data="{&quot;index&quot;:null}" fill="#fbff00"/><path d="M243.61691,175.24033v1.0833h-1.0833v-1.0833z" data-paper-data="{&quot;index&quot;:null}" fill="#fbff00"/><path d="M237.69488,185.49556v0.86664h-0.86664v-0.86664z" data-paper-data="{&quot;index&quot;:null}" fill-opacity="0.37097" fill="#fbff00"/></g></g></svg>