<svg version="1.1" xmlns="http://www.w3.org/2000/svg" xmlns:xlink="http://www.w3.org/1999/xlink" width="22.95" height="22.95" viewBox="0,0,22.95,22.95"><g transform="translate(-228.525,-168.525)"><g data-paper-data="{&quot;isPaintingLayer&quot;:true}" fill-rule="nonzero" stroke="none" stroke-width="0" stroke-linecap="butt" stroke-linejoin="miter" stroke-miterlimit="10" stroke-dasharray="" stroke-dashoffset="0" style="mix-blend-mode: normal"><path d="M235.93414,172.78087h5.53413l-2.76706,9.82381z" data-paper-data="{&quot;index&quot;:null}" fill-opacity="0.76471" fill="#ffffff"/><path d="M239.71986,172.78994h4.4627l-2.23135,7.92188z" data-paper-data="{&quot;index&quot;:null}" fill-opacity="0.76471" fill="#ffffff"/><path d="M241.85319,173.19709h6.19603l-3.09802,10.99877z" data-paper-data="{&quot;index&quot;:null}" fill-opacity="0.76471" fill="#ffffff"/><path d="M231.94841,173.04947h7.27939l-3.6397,12.42188z" data-paper-data="{&quot;index&quot;:null}" fill-opacity="0.76471" fill="#ffffff"/><path d="M248.03031,179.40494l-1.74856,-6.20785h1.70039z" data-paper-data="{&quot;index&quot;:null}" fill-opacity="0.76471" fill="#ffffff"/><path d="M232.03032,179.40493l-0.04817,-6.20785h2.20992l-1.95516,6.94133z" data-paper-data="{&quot;index&quot;:null}" fill-opacity="0.76471" fill="#ffffff"/><g data-paper-data="{&quot;index&quot;:null}" fill="#000000"><path d="M248,171.99997v1.31794l-1.72801,2.56781l-2.49764,-2.38329l-1.26752,1.41949l-1.84175,-1.61034l-1.43622,3.58391l-1.33245,-3.70398l-1.57615,1.40806l-1.15359,-0.86977l-1.56667,1.4003l-1.56937,-1.96015l-0.03063,-1.16995z"/><path d="M247.99285,172.13571v0.93333h-15.98571v-0.93333z"/></g><path d="M251.475,168.525v22.95h-22.95v-22.95z" data-paper-data="{&quot;index&quot;:null}" fill="none"/></g></g></svg>