<svg version="1.1" xmlns="http://www.w3.org/2000/svg" xmlns:xlink="http://www.w3.org/1999/xlink" width="44.48864" height="44.48864" viewBox="0,0,44.48864,44.48864"><defs><radialGradient cx="240" cy="180" r="4.9375" gradientUnits="userSpaceOnUse" id="color-1"><stop offset="0" stop-color="#ffffff" stop-opacity="0.26159"/><stop offset="1" stop-color="#ffffff" stop-opacity="0"/></radialGradient></defs><g transform="translate(-217.75568,-157.75568)"><g data-paper-data="{&quot;isPaintingLayer&quot;:true}" fill-rule="nonzero" stroke="none" stroke-linecap="butt" stroke-linejoin="miter" stroke-miterlimit="10" stroke-dasharray="" stroke-dashoffset="0" style="mix-blend-mode: normal"><g><path d="M235.0625,180c0,-2.72691 2.21059,-4.9375 4.9375,-4.9375c2.72691,0 4.9375,2.21059 4.9375,4.9375c0,2.72691 -2.21059,4.9375 -4.9375,4.9375c-2.72691,0 -4.9375,-2.21059 -4.9375,-4.9375z" fill="url(#color-1)" stroke-width="0"/><path d="M239.95668,181.51607c0,0 -0.10628,-0.77947 -0.37813,-1.05132c-0.24879,-0.24879 -1.18991,-0.51673 -1.18991,-0.51673c0,0 0.8149,-0.06252 1.07111,-0.31874c0.2661,-0.2661 0.49693,-1.24931 0.49693,-1.24931c0,0 0.20807,0.96045 0.47713,1.22951c0.25258,0.25258 1.09091,0.33853 1.09091,0.33853c0,0 -0.86996,0.23638 -1.11071,0.47712c-0.27687,0.27687 -0.45733,1.09092 -0.45733,1.09092z" fill="#ffefcc" stroke-width="NaN"/></g><path d="M217.75568,202.24432v-44.48864h44.48864v44.48864z" fill="none" stroke-width="NaN"/></g></g></svg>