<svg version="1.1" xmlns="http://www.w3.org/2000/svg" xmlns:xlink="http://www.w3.org/1999/xlink" width="44.48864" height="44.48864" viewBox="0,0,44.48864,44.48864"><defs><radialGradient cx="240" cy="180" r="8.375" gradientUnits="userSpaceOnUse" id="color-1"><stop offset="0" stop-color="#ffffff" stop-opacity="0.26159"/><stop offset="1" stop-color="#ffffff" stop-opacity="0"/></radialGradient></defs><g transform="translate(-217.75568,-157.75568)"><g data-paper-data="{&quot;isPaintingLayer&quot;:true}" fill-rule="nonzero" stroke="none" stroke-linecap="butt" stroke-linejoin="miter" stroke-miterlimit="10" stroke-dasharray="" stroke-dashoffset="0" style="mix-blend-mode: normal"><path d="M217.75568,202.24432v-44.48864h44.48864v44.48864z" fill="none" stroke-width="NaN"/><g><path d="M231.625,180c0,-4.62538 3.74962,-8.375 8.375,-8.375c4.62538,0 8.375,3.74962 8.375,8.375c0,4.62538 -3.74962,8.375 -8.375,8.375c-4.62538,0 -8.375,-3.74962 -8.375,-8.375z" fill="url(#color-1)" stroke-width="0"/><path d="M239.92653,182.57156c0,0 -0.18028,-1.32214 -0.64138,-1.78324c-0.422,-0.422 -2.01834,-0.87647 -2.01834,-0.87647c0,0 1.38225,-0.10606 1.81683,-0.54064c0.45135,-0.45135 0.84289,-2.11909 0.84289,-2.11909c0,0 0.35293,1.62912 0.8093,2.08551c0.42842,0.42842 1.85041,0.57421 1.85041,0.57421c0,0 -1.47564,0.40096 -1.884,0.8093c-0.46962,0.46962 -0.77572,1.85041 -0.77572,1.85041z" fill="#ffefcc" stroke-width="NaN"/></g></g></g></svg>