<svg version="1.1" xmlns="http://www.w3.org/2000/svg" xmlns:xlink="http://www.w3.org/1999/xlink" width="44.48864" height="44.48864" viewBox="0,0,44.48864,44.48864"><defs><radialGradient cx="240" cy="180" r="2.5" gradientUnits="userSpaceOnUse" id="color-1"><stop offset="0" stop-color="#ffffff" stop-opacity="0.26159"/><stop offset="1" stop-color="#ffffff" stop-opacity="0"/></radialGradient></defs><g transform="translate(-217.75568,-157.75568)"><g data-paper-data="{&quot;isPaintingLayer&quot;:true}" fill-rule="nonzero" stroke="none" stroke-linecap="butt" stroke-linejoin="miter" stroke-miterlimit="10" stroke-dasharray="" stroke-dashoffset="0" style="mix-blend-mode: normal"><path d="M217.75568,202.24432v-44.48864h44.48864v44.48864z" fill="none" stroke-width="NaN"/><g><path d="M237.5,180c0,-1.38071 1.11929,-2.5 2.5,-2.5c1.38071,0 2.5,1.11929 2.5,2.5c0,1.38071 -1.11929,2.5 -2.5,2.5c-1.38071,0 -2.5,-1.11929 -2.5,-2.5z" fill="url(#color-1)" stroke-width="0"/><path d="M239.97807,180.76763c0,0 -0.05381,-0.39467 -0.19146,-0.53231c-0.12597,-0.12597 -0.60249,-0.26163 -0.60249,-0.26163c0,0 0.41261,-0.03166 0.54234,-0.16139c0.13473,-0.13473 0.25161,-0.63256 0.25161,-0.63256c0,0 0.10535,0.48631 0.24158,0.62254c0.12788,0.12788 0.55236,0.17141 0.55236,0.17141c0,0 -0.44049,0.11969 -0.56239,0.24158c-0.14019,0.14019 -0.23156,0.55236 -0.23156,0.55236z" fill="#ffefcc" stroke-width="NaN"/></g></g></g></svg>