<svg version="1.1" xmlns="http://www.w3.org/2000/svg" xmlns:xlink="http://www.w3.org/1999/xlink" width="22.95" height="22.95" viewBox="0,0,22.95,22.95"><g transform="translate(-228.525,-168.525)"><g data-paper-data="{&quot;isPaintingLayer&quot;:true}" fill-rule="nonzero" stroke="none" stroke-width="0" stroke-linecap="butt" stroke-linejoin="miter" stroke-miterlimit="10" stroke-dasharray="" stroke-dashoffset="0" style="mix-blend-mode: normal"><path d="M238.70121,177.39532l2.76706,9.82381h-5.53413z" fill-opacity="0.76471" fill="#ffffff"/><path d="M241.95121,179.28818l2.23135,7.92188h-4.4627z" fill-opacity="0.76471" fill="#ffffff"/><path d="M244.9512,175.80414l3.09802,10.99877h-6.19603z" fill-opacity="0.76471" fill="#ffffff"/><path d="M235.5881,174.52865l3.6397,12.42188h-7.27939z" fill-opacity="0.76471" fill="#ffffff"/><path d="M247.98214,186.80291h-1.70039l1.74856,-6.20785z" fill-opacity="0.76471" fill="#ffffff"/><path d="M232.23691,179.86159l1.95516,6.94133h-2.20992l0.04817,-6.20785z" fill-opacity="0.76471" fill="#ffffff"/><g fill="#000000"><path d="M232,188l0.03063,-1.16995l1.56937,-1.96015l1.56667,1.4003l1.15359,-0.86977l1.57615,1.40806l1.33245,-3.70398l1.43622,3.58391l1.84175,-1.61034l1.26752,1.41949l2.49764,-2.38329l1.72801,2.56781v1.31794z"/><path d="M232.00714,187.86429v-0.93333h15.98571v0.93333z"/></g><path d="M228.525,191.475v-22.95h22.95v22.95z" fill="none"/></g></g></svg>