<svg version="1.1" xmlns="http://www.w3.org/2000/svg" xmlns:xlink="http://www.w3.org/1999/xlink" width="63.33333" height="63.33333" viewBox="0,0,63.33333,63.33333"><g transform="translate(-208.33333,-148.33333)"><g data-paper-data="{&quot;isPaintingLayer&quot;:true}" fill-rule="nonzero" stroke-linejoin="miter" stroke-miterlimit="10" stroke-dasharray="" stroke-dashoffset="0" style="mix-blend-mode: normal"><path d="M232.63007,182.71088l9.30652,-9.30652c0,0 0.22913,-0.19373 0.51054,-0.17948c0.28142,0.01425 0.56499,0.23393 0.56499,0.23393l4.43255,4.43255c0,0 0.24216,0.27847 0.24506,0.57612c0.0029,0.29765 -0.23466,0.49215 -0.23466,0.49215l-8.0905,8.0905l-3.62064,0.00634l-3.14635,-3.14635c0,0 -0.28375,-0.31525 -0.27716,-0.55847c0.00659,-0.24323 0.30964,-0.64078 0.30964,-0.64078z" fill-opacity="0.2902" fill="#ffffff" stroke="#ffffff" stroke-width="1" stroke-linecap="butt"/><path d="M241.4026,184.62776l-5.07562,-5.07562" fill="none" stroke="#ffffff" stroke-width="1.5" stroke-linecap="round"/><path d="M208.33333,211.66667v-63.33333h63.33333v63.33333z" fill="none" stroke="none" stroke-width="none" stroke-linecap="butt"/></g></g></svg>