<svg version="1.1" xmlns="http://www.w3.org/2000/svg" xmlns:xlink="http://www.w3.org/1999/xlink" width="19.02697" height="12.68075" viewBox="0,0,19.02697,12.68075"><g transform="translate(-310.06074,-179.33582)"><g data-paper-data="{&quot;isPaintingLayer&quot;:true}" fill-rule="nonzero" stroke-linecap="butt" stroke-linejoin="miter" stroke-miterlimit="10" stroke-dasharray="" stroke-dashoffset="0" style="mix-blend-mode: normal"><g><g fill="#8dff36" stroke="#295e00" stroke-width="0.75"><path d="M315.77086,191.60662v-7.10599h8.52538v7.10599z"/><path d="M324.58598,191.48719v-6.86713l0.11342,-0.06552l4.01331,1.8261v3.23159l-4.01714,1.96294z"/><path d="M310.43574,189.78013v-3.73103h1.91712v3.73103z"/><path d="M312.31824,184.58371l3.26768,1.08351v4.74626l-3.26433,1.13253l-0.0992,-0.06498v-6.81007z" data-paper-data="{&quot;index&quot;:null}"/></g><g fill="#5abb0f" stroke="#510808" stroke-width="0"><path d="M316.30211,191.10662v-1.60599h7.55663v1.60599z"/><path d="M325.05473,190.89344v-1.46088l3.12672,-0.61442v0.48159z"/><path d="M310.96699,189.37388v-0.79353h0.76087v0.79353z"/><path d="M315.14842,189.41722v0.65251l-2.45728,0.88005v-0.74757z" data-paper-data="{&quot;index&quot;:null}"/></g><path d="M314.09952,185.47083v-5.75136l1.0737,-0.00665l0.59801,3.86274l9.76221,0.68057v1.2147z" fill="#5abb0f" stroke="#295e00" stroke-width="0.75"/></g></g></g></svg>