<svg version="1.1" xmlns="http://www.w3.org/2000/svg" xmlns:xlink="http://www.w3.org/1999/xlink" width="75" height="75" viewBox="0,0,75,75"><defs><linearGradient x1="315.59417" y1="179.67604" x2="315.59417" y2="180.41035" gradientUnits="userSpaceOnUse" id="color-1"><stop offset="0" stop-color="#000000"/><stop offset="1" stop-color="#4a4a4a"/></linearGradient><linearGradient x1="324.40584" y1="179.67604" x2="324.40584" y2="180.41035" gradientUnits="userSpaceOnUse" id="color-2"><stop offset="0" stop-color="#000000"/><stop offset="1" stop-color="#4a4a4a"/></linearGradient><linearGradient x1="320.4603" y1="173.87926" x2="320.4603" y2="174.96614" gradientUnits="userSpaceOnUse" id="color-3"><stop offset="0" stop-color="#822e5f"/><stop offset="1" stop-color="#822e5f" stop-opacity="0"/></linearGradient><linearGradient x1="315.59417" y1="179.67604" x2="315.59417" y2="180.41035" gradientUnits="userSpaceOnUse" id="color-4"><stop offset="0" stop-color="#000000"/><stop offset="1" stop-color="#4a4a4a"/></linearGradient><linearGradient x1="324.40584" y1="179.67604" x2="324.40584" y2="180.41035" gradientUnits="userSpaceOnUse" id="color-5"><stop offset="0" stop-color="#000000"/><stop offset="1" stop-color="#4a4a4a"/></linearGradient><linearGradient x1="320.4603" y1="173.87926" x2="320.4603" y2="174.96614" gradientUnits="userSpaceOnUse" id="color-6"><stop offset="0" stop-color="#822e5f"/><stop offset="1" stop-color="#822e5f" stop-opacity="0"/></linearGradient></defs><g transform="translate(-282.5,-142.5)"><g data-paper-data="{&quot;isPaintingLayer&quot;:true}" fill-rule="nonzero" stroke-linecap="butt" stroke-linejoin="miter" stroke-miterlimit="10" stroke-dasharray="" stroke-dashoffset="0" style="mix-blend-mode: normal"><path d="M282.5,217.5v-75h75v75z" fill="none" stroke="none" stroke-width="0"/><g><g stroke="#ffffff" stroke-width="1"><path d="M328.16644,185.70603c0,1.45863 -1.18299,2.64131 -2.64131,2.64131h-11.05055c-1.45863,0 -2.64101,-1.18299 -2.64101,-2.64131v-11.41236c0,-1.45863 1.18238,-2.64101 2.64101,-2.64101h11.05024c1.45925,0 2.64131,1.18238 2.64131,2.64101v11.41236z" data-paper-data="{&quot;index&quot;:null}" fill="#ffa7da"/><path d="M320.00001,180.28688c2.75211,0 4.98314,2.53103 4.98314,4.2539c0,1.72287 -2.23103,1.49899 -4.98314,1.49899c-2.75211,0 -4.98314,0.22388 -4.98314,-1.49899c0,-1.72287 2.23103,-4.2539 4.98314,-4.2539z" fill="#ff73b6"/><g><g data-paper-data="{&quot;index&quot;:null}"><path d="M319.32946,183.71473c0,0.92952 -0.50235,1.68305 -1.12203,1.68305c-0.61968,0 -1.12203,-0.75353 -1.12203,-1.68305c0,-0.92952 0.50235,-1.68304 1.12203,-1.68304c0.61968,0 1.12203,0.75352 1.12203,1.68304z" fill="#a92c4a"/><path d="M319.19988,183.56355c0,0.77446 -0.40566,1.40228 -0.90606,1.40228c-0.5004,0 -0.90606,-0.62782 -0.90606,-1.40228c0,-0.77446 0.40565,-1.40228 0.90606,-1.40228c0.5004,0 0.90606,0.62782 0.90606,1.40228z" fill="#6b2647"/></g><g><path d="M321.79257,182.03169c0.61968,0 1.12203,0.75352 1.12203,1.68304c0,0.92952 -0.50235,1.68305 -1.12203,1.68305c-0.61968,0 -1.12203,-0.75353 -1.12203,-1.68305c0,-0.92952 0.50235,-1.68304 1.12203,-1.68304z" fill="#a92c4a"/><path d="M321.70618,182.16127c0.5004,0 0.90606,0.62782 0.90606,1.40228c0,0.77446 -0.40566,1.40228 -0.90606,1.40228c-0.5004,0 -0.90605,-0.62782 -0.90605,-1.40228c0,-0.77446 0.40565,-1.40228 0.90605,-1.40228z" fill="#6b2647"/></g></g><g fill="#ffffff"><path d="M313.13208,179.13611c0,-1.19278 0.96694,-2.15972 2.15972,-2.15972c1.19278,0 2.15973,0.96694 2.15973,2.15972c0,1.19278 -0.96695,2.15973 -2.15973,2.15973c-1.19278,0 -2.15972,-0.96695 -2.15972,-2.15973z"/><path d="M322.54847,179.13611c0,-1.19278 0.96694,-2.15973 2.15972,-2.15973c1.19278,0 2.15973,0.96695 2.15973,2.15973c0,1.19278 -0.96695,2.15973 -2.15973,2.15973c-1.19278,0 -2.15972,-0.96695 -2.15972,-2.15973z"/></g><g><g><path d="M314.23354,179.2225c0,-0.75145 0.60917,-1.36062 1.36062,-1.36062c0.75145,0 1.36062,0.60917 1.36062,1.36062c0,0.75145 -0.60917,1.36063 -1.36062,1.36063c-0.75145,0 -1.36062,-0.60917 -1.36062,-1.36063z" fill="#000000"/><path d="M314.5791,178.87694c0,-0.32205 0.26108,-0.58312 0.58312,-0.58312c0.32205,0 0.58312,0.26108 0.58312,0.58312c0,0.32205 -0.26108,0.58312 -0.58312,0.58312c-0.32205,0 -0.58312,-0.26108 -0.58312,-0.58312z" fill="#ffffff"/><path d="M315.59417,179.67604c0.41747,0 0.7559,0.16437 0.7559,0.36715c0,0.20277 -0.33843,0.36715 -0.7559,0.36715c-0.41748,0 -0.75591,-0.16437 -0.75591,-0.36715c0,-0.20277 0.33844,-0.36715 0.75591,-0.36715z" fill="url(#color-1)"/></g><g><path d="M323.04521,179.2225c0,-0.75145 0.60917,-1.36062 1.36062,-1.36062c0.75145,0 1.36062,0.60917 1.36062,1.36062c0,0.75145 -0.60917,1.36063 -1.36062,1.36063c-0.75145,0 -1.36062,-0.60917 -1.36062,-1.36063z" fill="#000000"/><path d="M323.39077,178.87694c0,-0.32205 0.26108,-0.58312 0.58313,-0.58312c0.32205,0 0.58312,0.26108 0.58312,0.58312c0,0.32205 -0.26108,0.58312 -0.58312,0.58312c-0.32205,0 -0.58313,-0.26108 -0.58313,-0.58312z" fill="#ffffff"/><path d="M324.40583,179.67604c0.41748,0 0.75591,0.16437 0.75591,0.36715c0,0.20277 -0.33844,0.36715 -0.75591,0.36715c-0.41747,0 -0.7559,-0.16437 -0.7559,-0.36715c0,-0.20277 0.33843,-0.36715 0.7559,-0.36715z" fill="url(#color-2)"/></g></g><path d="M312.12377,174.96614v-1.08687h15.52589v1.08687z" fill="url(#color-3)"/><g><path d="M311.66347,174.17267v-2.80764h16.67306v2.80764z" fill="#ffde29"/><g fill="#ffde29"><path d="M311.66347,172.57447v-2.80764h2.37569v2.80764z"/><path d="M325.87444,172.57447v-2.80764h2.46209v2.80764z"/><path d="M316.0693,172.57447v-2.80764h2.37569v2.80764z"/><path d="M320.99347,172.57447v-2.80764h2.37569v2.80764z"/></g><g><path d="M313.77938,173.60943v-1.49133h1.49133v1.49133z" fill="#66c7ff"/><path d="M317.22091,173.60943v-1.49133h1.49133v1.49133z" fill="#435fff"/><path d="M320.8154,173.60943v-1.49133h1.49133v1.49133z" fill="#d7ff29"/><path d="M324.25694,173.60943v-1.49133h1.49134v1.49133z" fill="#aa25e8"/></g></g><g fill="#ff73b6"><path d="M310.92915,175.12171c0,-1.04965 1.37121,-1.19294 2.82924,-1.68458c1.40911,-0.47514 2.91563,-0.44493 2.91563,0.60472c0,1.04965 -2.75916,4.27625 -3.73632,4.27625c-1.53869,0 -2.00854,-2.14674 -2.00854,-3.19639z"/><path d="M329.07084,175.12171c0,1.04965 -0.46986,3.19639 -2.00855,3.19639c-0.97716,0 -3.73632,-3.2266 -3.73632,-4.27625c0,-1.04965 1.50652,-1.07986 2.91562,-0.60472c1.45803,0.49164 2.82924,0.63493 2.82924,1.68458z" data-paper-data="{&quot;index&quot;:null}"/></g></g><g stroke="none"><path d="M328.16644,185.70603c0,1.45863 -1.18299,2.64131 -2.64131,2.64131h-11.05055c-1.45863,0 -2.64101,-1.18299 -2.64101,-2.64131v-11.41236c0,-1.45863 1.18238,-2.64101 2.64101,-2.64101h11.05024c1.45925,0 2.64131,1.18238 2.64131,2.64101v11.41236z" data-paper-data="{&quot;index&quot;:null}" fill="#ffa7da" stroke-width="1"/><path d="M320.00001,180.28688c2.75211,0 4.98314,2.53103 4.98314,4.2539c0,1.72287 -2.23103,1.49899 -4.98314,1.49899c-2.75211,0 -4.98314,0.22388 -4.98314,-1.49899c0,-1.72287 2.23103,-4.2539 4.98314,-4.2539z" fill="#ff73b6" stroke-width="0"/><g stroke-width="0"><g data-paper-data="{&quot;index&quot;:null}"><path d="M319.32946,183.71473c0,0.92952 -0.50235,1.68305 -1.12203,1.68305c-0.61968,0 -1.12203,-0.75353 -1.12203,-1.68305c0,-0.92952 0.50235,-1.68304 1.12203,-1.68304c0.61968,0 1.12203,0.75352 1.12203,1.68304z" fill="#a92c4a"/><path d="M319.19988,183.56355c0,0.77446 -0.40566,1.40228 -0.90606,1.40228c-0.5004,0 -0.90606,-0.62782 -0.90606,-1.40228c0,-0.77446 0.40565,-1.40228 0.90606,-1.40228c0.5004,0 0.90606,0.62782 0.90606,1.40228z" fill="#6b2647"/></g><g><path d="M321.79257,182.03169c0.61968,0 1.12203,0.75352 1.12203,1.68304c0,0.92952 -0.50235,1.68305 -1.12203,1.68305c-0.61968,0 -1.12203,-0.75353 -1.12203,-1.68305c0,-0.92952 0.50235,-1.68304 1.12203,-1.68304z" fill="#a92c4a"/><path d="M321.70618,182.16127c0.5004,0 0.90606,0.62782 0.90606,1.40228c0,0.77446 -0.40566,1.40228 -0.90606,1.40228c-0.5004,0 -0.90605,-0.62782 -0.90605,-1.40228c0,-0.77446 0.40565,-1.40228 0.90605,-1.40228z" fill="#6b2647"/></g></g><g fill="#ffffff" stroke-width="0"><path d="M313.13208,179.13611c0,-1.19278 0.96694,-2.15972 2.15972,-2.15972c1.19278,0 2.15973,0.96694 2.15973,2.15972c0,1.19278 -0.96695,2.15973 -2.15973,2.15973c-1.19278,0 -2.15972,-0.96695 -2.15972,-2.15973z"/><path d="M322.54847,179.13611c0,-1.19278 0.96694,-2.15973 2.15972,-2.15973c1.19278,0 2.15973,0.96695 2.15973,2.15973c0,1.19278 -0.96695,2.15973 -2.15973,2.15973c-1.19278,0 -2.15972,-0.96695 -2.15972,-2.15973z"/></g><g stroke-width="0"><g><path d="M314.23354,179.2225c0,-0.75145 0.60917,-1.36062 1.36062,-1.36062c0.75145,0 1.36062,0.60917 1.36062,1.36062c0,0.75145 -0.60917,1.36063 -1.36062,1.36063c-0.75145,0 -1.36062,-0.60917 -1.36062,-1.36063z" fill="#000000"/><path d="M314.5791,178.87694c0,-0.32205 0.26108,-0.58312 0.58312,-0.58312c0.32205,0 0.58312,0.26108 0.58312,0.58312c0,0.32205 -0.26108,0.58312 -0.58312,0.58312c-0.32205,0 -0.58312,-0.26108 -0.58312,-0.58312z" fill="#ffffff"/><path d="M315.59417,179.67604c0.41747,0 0.7559,0.16437 0.7559,0.36715c0,0.20277 -0.33843,0.36715 -0.7559,0.36715c-0.41748,0 -0.75591,-0.16437 -0.75591,-0.36715c0,-0.20277 0.33844,-0.36715 0.75591,-0.36715z" fill="url(#color-4)"/></g><g><path d="M323.04521,179.2225c0,-0.75145 0.60917,-1.36062 1.36062,-1.36062c0.75145,0 1.36062,0.60917 1.36062,1.36062c0,0.75145 -0.60917,1.36063 -1.36062,1.36063c-0.75145,0 -1.36062,-0.60917 -1.36062,-1.36063z" fill="#000000"/><path d="M323.39077,178.87694c0,-0.32205 0.26108,-0.58312 0.58313,-0.58312c0.32205,0 0.58312,0.26108 0.58312,0.58312c0,0.32205 -0.26108,0.58312 -0.58312,0.58312c-0.32205,0 -0.58313,-0.26108 -0.58313,-0.58312z" fill="#ffffff"/><path d="M324.40583,179.67604c0.41748,0 0.75591,0.16437 0.75591,0.36715c0,0.20277 -0.33844,0.36715 -0.75591,0.36715c-0.41747,0 -0.7559,-0.16437 -0.7559,-0.36715c0,-0.20277 0.33843,-0.36715 0.7559,-0.36715z" fill="url(#color-5)"/></g></g><path d="M312.12377,174.96614v-1.08687h15.52589v1.08687z" fill="url(#color-6)" stroke-width="0"/><g stroke-width="0"><path d="M311.66347,174.17267v-2.80764h16.67306v2.80764z" fill="#ffde29"/><g fill="#ffde29"><path d="M311.66347,172.57447v-2.80764h2.37569v2.80764z"/><path d="M325.87444,172.57447v-2.80764h2.46209v2.80764z"/><path d="M316.0693,172.57447v-2.80764h2.37569v2.80764z"/><path d="M320.99347,172.57447v-2.80764h2.37569v2.80764z"/></g><g><path d="M313.77938,173.60943v-1.49133h1.49133v1.49133z" fill="#66c7ff"/><path d="M317.22091,173.60943v-1.49133h1.49133v1.49133z" fill="#435fff"/><path d="M320.8154,173.60943v-1.49133h1.49133v1.49133z" fill="#d7ff29"/><path d="M324.25694,173.60943v-1.49133h1.49134v1.49133z" fill="#aa25e8"/></g></g><g fill="#ff73b6" stroke-width="0"><path d="M310.92915,175.12171c0,-1.04965 1.37121,-1.19294 2.82924,-1.68458c1.40911,-0.47514 2.91563,-0.44493 2.91563,0.60472c0,1.04965 -2.75916,4.27625 -3.73632,4.27625c-1.53869,0 -2.00854,-2.14674 -2.00854,-3.19639z"/><path d="M329.07084,175.12171c0,1.04965 -0.46986,3.19639 -2.00855,3.19639c-0.97716,0 -3.73632,-3.2266 -3.73632,-4.27625c0,-1.04965 1.50652,-1.07986 2.91562,-0.60472c1.45803,0.49164 2.82924,0.63493 2.82924,1.68458z" data-paper-data="{&quot;index&quot;:null}"/></g></g></g></g></g></svg>