<svg version="1.1" xmlns="http://www.w3.org/2000/svg" xmlns:xlink="http://www.w3.org/1999/xlink" width="44.48864" height="44.48864" viewBox="0,0,44.48864,44.48864"><defs><radialGradient cx="240" cy="180" r="2.6875" gradientUnits="userSpaceOnUse" id="color-1"><stop offset="0" stop-color="#ffffff" stop-opacity="0.26159"/><stop offset="1" stop-color="#ffffff" stop-opacity="0"/></radialGradient></defs><g transform="translate(-217.75568,-157.75568)"><g data-paper-data="{&quot;isPaintingLayer&quot;:true}" fill-rule="nonzero" stroke="none" stroke-linecap="butt" stroke-linejoin="miter" stroke-miterlimit="10" stroke-dasharray="" stroke-dashoffset="0" style="mix-blend-mode: normal"><path d="M217.75568,202.24432v-44.48864h44.48864v44.48864z" fill="none" stroke-width="NaN"/><g><path d="M237.3125,180c0,-1.48427 1.20323,-2.6875 2.6875,-2.6875c1.48427,0 2.6875,1.20323 2.6875,2.6875c0,1.48427 -1.20323,2.6875 -2.6875,2.6875c-1.48427,0 -2.6875,-1.20323 -2.6875,-2.6875z" fill="url(#color-1)" stroke-width="0"/><path d="M239.97642,180.8252c0,0 -0.05785,-0.42427 -0.20582,-0.57224c-0.13542,-0.13542 -0.64767,-0.28126 -0.64767,-0.28126c0,0 0.44356,-0.03404 0.58301,-0.17349c0.14484,-0.14484 0.27048,-0.68 0.27048,-0.68c0,0 0.11325,0.52278 0.2597,0.66923c0.13748,0.13748 0.59379,0.18426 0.59379,0.18426c0,0 -0.47353,0.12866 -0.60457,0.2597c-0.1507,0.1507 -0.24892,0.59379 -0.24892,0.59379z" fill="#ffefcc" stroke-width="NaN"/></g></g></g></svg>