<svg version="1.1" xmlns="http://www.w3.org/2000/svg" xmlns:xlink="http://www.w3.org/1999/xlink" width="27.71429" height="27.71429" viewBox="0,0,27.71429,27.71429"><g transform="translate(-226.14286,-166.14286)"><g data-paper-data="{&quot;isPaintingLayer&quot;:true}" fill-rule="nonzero" stroke="none" stroke-linecap="butt" stroke-linejoin="miter" stroke-miterlimit="10" stroke-dasharray="" stroke-dashoffset="0" style="mix-blend-mode: normal"><path d="M242.39743,181.84091v3.51178c0,0.8408 -0.68362,1.52472 -1.52501,1.52472h-1.28083c-0.8405,0 -1.52472,-0.68392 -1.52472,-1.52472v-3.51208c0,-0.8408 0.68422,-1.52471 1.52472,-1.52471h1.28083c0.84139,0 1.52501,0.68421 1.52501,1.52501zM240.19927,185.68555c0.5218,0 0.94479,-0.423 0.94479,-0.9448c0,-0.28195 0.01302,-1.05623 0.01215,-1.87594c-0.00086,-0.80972 -0.24144,-1.41314 -0.95694,-1.38939c-0.58306,0.01935 -0.93559,0.43429 -0.93835,1.4321c-0.00136,0.48989 -0.00644,1.67636 -0.00644,1.83324c0,0.5218 0.42299,0.9448 0.94479,0.9448z" fill="#fcfeff" stroke-width="1"/><path d="M242.39743,173.56028v3.51178c0,0.8408 -0.68362,1.52472 -1.52501,1.52472h-1.28083c-0.8405,0 -1.52472,-0.68392 -1.52472,-1.52472v-3.51208c0,-0.8408 0.68422,-1.52471 1.52472,-1.52471h1.28083c0.84139,0 1.52501,0.68421 1.52501,1.52501zM240.19927,177.40492c0.5218,0 0.94479,-0.423 0.94479,-0.9448c0,-0.28195 0.01302,-1.05623 0.01215,-1.87594c-0.00086,-0.80972 -0.24144,-1.41314 -0.95694,-1.38939c-0.58306,0.01935 -0.93559,0.43429 -0.93835,1.4321c-0.00136,0.48989 -0.00644,1.67636 -0.00644,1.83324c0,0.5218 0.42299,0.9448 0.94479,0.9448z" fill="#fcfeff" stroke-width="1"/><path d="M240.99732,177.91608v3.04075c0,0.72802 -0.24157,1.32022 -0.53891,1.32022h-0.45262c-0.29702,0 -0.53881,-0.5922 -0.53881,-1.32022v-3.04101c0,-0.72802 0.24179,-1.3202 0.53881,-1.3202h0.45262c0.29733,0 0.53891,0.59244 0.53891,1.32047z" fill="#fcfeff" stroke-width="1"/><path d="M240.99732,185.99671v2.01262h-1.53034v-2.01288c0,-0.72802 0.24179,-1.32021 0.53881,-1.32021h0.45262c0.29733,0 0.53891,0.59245 0.53891,1.32047z" fill="#fcfeff" stroke-width="1"/><path d="M240.99733,171.97361v1.06384c0,0.72802 -0.24158,1.32022 -0.53891,1.32022h-0.45262c-0.29702,0 -0.53881,-0.5922 -0.53881,-1.32022v-1.06384z" fill="#fcfeff" stroke-width="1"/><path d="M226.14286,193.85714v-27.71429h27.71429v27.71429z" fill="none" stroke-width="0"/></g></g></svg>